G04 #@! TF.GenerationSoftware,KiCad,Pcbnew,(6.0.11)*
G04 #@! TF.CreationDate,2023-05-24T19:33:28+02:00*
G04 #@! TF.ProjectId,an2can,616e3263-616e-42e6-9b69-6361645f7063,V0*
G04 #@! TF.SameCoordinates,Original*
G04 #@! TF.FileFunction,Soldermask,Bot*
G04 #@! TF.FilePolarity,Negative*
%FSLAX46Y46*%
G04 Gerber Fmt 4.6, Leading zero omitted, Abs format (unit mm)*
G04 Created by KiCad (PCBNEW (6.0.11)) date 2023-05-24 19:33:28*
%MOMM*%
%LPD*%
G01*
G04 APERTURE LIST*
G04 Aperture macros list*
%AMRoundRect*
0 Rectangle with rounded corners*
0 $1 Rounding radius*
0 $2 $3 $4 $5 $6 $7 $8 $9 X,Y pos of 4 corners*
0 Add a 4 corners polygon primitive as box body*
4,1,4,$2,$3,$4,$5,$6,$7,$8,$9,$2,$3,0*
0 Add four circle primitives for the rounded corners*
1,1,$1+$1,$2,$3*
1,1,$1+$1,$4,$5*
1,1,$1+$1,$6,$7*
1,1,$1+$1,$8,$9*
0 Add four rect primitives between the rounded corners*
20,1,$1+$1,$2,$3,$4,$5,0*
20,1,$1+$1,$4,$5,$6,$7,0*
20,1,$1+$1,$6,$7,$8,$9,0*
20,1,$1+$1,$8,$9,$2,$3,0*%
%AMFreePoly0*
4,1,22,0.550000,-0.750000,0.000000,-0.750000,0.000000,-0.745033,-0.079941,-0.743568,-0.215256,-0.701293,-0.333266,-0.622738,-0.424486,-0.514219,-0.481581,-0.384460,-0.499164,-0.250000,-0.500000,-0.250000,-0.500000,0.250000,-0.499164,0.250000,-0.499963,0.256109,-0.478152,0.396186,-0.417904,0.524511,-0.324060,0.630769,-0.204165,0.706417,-0.067858,0.745374,0.000000,0.744959,0.000000,0.750000,
0.550000,0.750000,0.550000,-0.750000,0.550000,-0.750000,$1*%
%AMFreePoly1*
4,1,20,0.000000,0.744959,0.073905,0.744508,0.209726,0.703889,0.328688,0.626782,0.421226,0.519385,0.479903,0.390333,0.500000,0.250000,0.500000,-0.250000,0.499851,-0.262216,0.476331,-0.402017,0.414519,-0.529596,0.319384,-0.634700,0.198574,-0.708877,0.061801,-0.746166,0.000000,-0.745033,0.000000,-0.750000,-0.550000,-0.750000,-0.550000,0.750000,0.000000,0.750000,0.000000,0.744959,
0.000000,0.744959,$1*%
%AMFreePoly2*
4,1,22,0.500000,-0.750000,0.000000,-0.750000,0.000000,-0.745033,-0.079941,-0.743568,-0.215256,-0.701293,-0.333266,-0.622738,-0.424486,-0.514219,-0.481581,-0.384460,-0.499164,-0.250000,-0.500000,-0.250000,-0.500000,0.250000,-0.499164,0.250000,-0.499963,0.256109,-0.478152,0.396186,-0.417904,0.524511,-0.324060,0.630769,-0.204165,0.706417,-0.067858,0.745374,0.000000,0.744959,0.000000,0.750000,
0.500000,0.750000,0.500000,-0.750000,0.500000,-0.750000,$1*%
%AMFreePoly3*
4,1,20,0.000000,0.744959,0.073905,0.744508,0.209726,0.703889,0.328688,0.626782,0.421226,0.519385,0.479903,0.390333,0.500000,0.250000,0.500000,-0.250000,0.499851,-0.262216,0.476331,-0.402017,0.414519,-0.529596,0.319384,-0.634700,0.198574,-0.708877,0.061801,-0.746166,0.000000,-0.745033,0.000000,-0.750000,-0.500000,-0.750000,-0.500000,0.750000,0.000000,0.750000,0.000000,0.744959,
0.000000,0.744959,$1*%
G04 Aperture macros list end*
%ADD10C,1.700000*%
%ADD11RoundRect,0.250000X-0.600000X-0.600000X0.600000X-0.600000X0.600000X0.600000X-0.600000X0.600000X0*%
%ADD12C,5.600000*%
%ADD13RoundRect,0.250000X0.600000X0.600000X-0.600000X0.600000X-0.600000X-0.600000X0.600000X-0.600000X0*%
%ADD14R,1.700000X1.700000*%
%ADD15O,1.700000X1.700000*%
%ADD16RoundRect,0.200000X-0.200000X-0.275000X0.200000X-0.275000X0.200000X0.275000X-0.200000X0.275000X0*%
%ADD17RoundRect,0.200000X-0.275000X0.200000X-0.275000X-0.200000X0.275000X-0.200000X0.275000X0.200000X0*%
%ADD18RoundRect,0.062500X-0.062500X0.588500X-0.062500X-0.588500X0.062500X-0.588500X0.062500X0.588500X0*%
%ADD19RoundRect,0.062500X-0.588500X0.062500X-0.588500X-0.062500X0.588500X-0.062500X0.588500X0.062500X0*%
%ADD20R,3.450000X3.450000*%
%ADD21FreePoly0,0.000000*%
%ADD22R,1.000000X1.500000*%
%ADD23FreePoly1,0.000000*%
%ADD24R,1.200000X0.900000*%
%ADD25FreePoly2,180.000000*%
%ADD26FreePoly3,180.000000*%
%ADD27RoundRect,0.200000X0.200000X0.275000X-0.200000X0.275000X-0.200000X-0.275000X0.200000X-0.275000X0*%
%ADD28RoundRect,0.225000X-0.250000X0.225000X-0.250000X-0.225000X0.250000X-0.225000X0.250000X0.225000X0*%
%ADD29R,1.200000X1.400000*%
%ADD30R,0.500000X0.800000*%
%ADD31R,0.400000X0.800000*%
%ADD32RoundRect,0.225000X-0.017678X0.335876X-0.335876X0.017678X0.017678X-0.335876X0.335876X-0.017678X0*%
%ADD33RoundRect,0.250000X0.262500X0.450000X-0.262500X0.450000X-0.262500X-0.450000X0.262500X-0.450000X0*%
%ADD34RoundRect,0.200000X0.275000X-0.200000X0.275000X0.200000X-0.275000X0.200000X-0.275000X-0.200000X0*%
%ADD35RoundRect,0.225000X0.017678X-0.335876X0.335876X-0.017678X-0.017678X0.335876X-0.335876X0.017678X0*%
%ADD36RoundRect,0.150000X-0.150000X0.825000X-0.150000X-0.825000X0.150000X-0.825000X0.150000X0.825000X0*%
%ADD37RoundRect,0.250000X-0.450000X0.262500X-0.450000X-0.262500X0.450000X-0.262500X0.450000X0.262500X0*%
%ADD38RoundRect,0.250000X-0.159099X0.512652X-0.512652X0.159099X0.159099X-0.512652X0.512652X-0.159099X0*%
%ADD39C,0.650000*%
%ADD40R,1.450000X0.600000*%
%ADD41R,1.450000X0.300000*%
%ADD42O,2.100000X1.000000*%
%ADD43O,1.600000X1.000000*%
%ADD44RoundRect,0.225000X0.250000X-0.225000X0.250000X0.225000X-0.250000X0.225000X-0.250000X-0.225000X0*%
%ADD45RoundRect,0.225000X0.225000X0.250000X-0.225000X0.250000X-0.225000X-0.250000X0.225000X-0.250000X0*%
%ADD46RoundRect,0.150000X-0.587500X-0.150000X0.587500X-0.150000X0.587500X0.150000X-0.587500X0.150000X0*%
%ADD47RoundRect,0.250000X-0.250000X-0.475000X0.250000X-0.475000X0.250000X0.475000X-0.250000X0.475000X0*%
%ADD48R,0.800000X0.500000*%
%ADD49R,0.800000X0.400000*%
%ADD50RoundRect,0.218750X0.256250X-0.218750X0.256250X0.218750X-0.256250X0.218750X-0.256250X-0.218750X0*%
%ADD51RoundRect,0.250000X0.450000X-0.262500X0.450000X0.262500X-0.450000X0.262500X-0.450000X-0.262500X0*%
%ADD52C,0.800000*%
%ADD53C,0.500000*%
G04 APERTURE END LIST*
D10*
X126266000Y-74696000D03*
X126266000Y-77196000D03*
D11*
X116586000Y-74696000D03*
D10*
X116586000Y-77196000D03*
X119086000Y-74696000D03*
X119086000Y-77196000D03*
D12*
X126111000Y-69596000D03*
D10*
X65931000Y-110002000D03*
X65931000Y-112502000D03*
D13*
X75611000Y-112502000D03*
D10*
X75611000Y-110002000D03*
X73111000Y-112502000D03*
X73111000Y-110002000D03*
X126266000Y-106787000D03*
X126266000Y-104287000D03*
D11*
X116586000Y-104287000D03*
D10*
X116586000Y-106787000D03*
X119086000Y-104287000D03*
X119086000Y-106787000D03*
D14*
X97272000Y-74803000D03*
D15*
X97272000Y-77343000D03*
X94732000Y-74803000D03*
X94732000Y-77343000D03*
X92192000Y-74803000D03*
X92192000Y-77343000D03*
X89652000Y-74803000D03*
X89652000Y-77343000D03*
D10*
X126266000Y-94508000D03*
X126266000Y-97008000D03*
D11*
X116586000Y-94508000D03*
D10*
X116586000Y-97008000D03*
X119086000Y-94508000D03*
X119086000Y-97008000D03*
D14*
X86959500Y-112527000D03*
D15*
X86959500Y-109987000D03*
D10*
X126266000Y-84602000D03*
X126266000Y-87102000D03*
D11*
X116586000Y-84602000D03*
D10*
X116586000Y-87102000D03*
X119086000Y-84602000D03*
X119086000Y-87102000D03*
D12*
X126111000Y-111887000D03*
X82270000Y-70495000D03*
D14*
X64770000Y-79375000D03*
D15*
X64770000Y-81915000D03*
X64770000Y-84455000D03*
X64770000Y-86995000D03*
X64770000Y-89535000D03*
X64770000Y-92075000D03*
X64770000Y-94615000D03*
D12*
X82296000Y-111760000D03*
D16*
X120714000Y-73660000D03*
X122364000Y-73660000D03*
D17*
X108204000Y-72581000D03*
X108204000Y-74231000D03*
D16*
X120714000Y-106426000D03*
X122364000Y-106426000D03*
D18*
X92618000Y-87773000D03*
X93118000Y-87773000D03*
X93618000Y-87773000D03*
X94118000Y-87773000D03*
X94618000Y-87773000D03*
X95118000Y-87773000D03*
X95618000Y-87773000D03*
X96118000Y-87773000D03*
D19*
X97019000Y-88674000D03*
X97019000Y-89174000D03*
X97019000Y-89674000D03*
X97019000Y-90174000D03*
X97019000Y-90674000D03*
X97019000Y-91174000D03*
X97019000Y-91674000D03*
X97019000Y-92174000D03*
D18*
X96118000Y-93075000D03*
X95618000Y-93075000D03*
X95118000Y-93075000D03*
X94618000Y-93075000D03*
X94118000Y-93075000D03*
X93618000Y-93075000D03*
X93118000Y-93075000D03*
X92618000Y-93075000D03*
D19*
X91717000Y-92174000D03*
X91717000Y-91674000D03*
X91717000Y-91174000D03*
X91717000Y-90674000D03*
X91717000Y-90174000D03*
X91717000Y-89674000D03*
X91717000Y-89174000D03*
X91717000Y-88674000D03*
D20*
X94368000Y-90424000D03*
D21*
X71568000Y-84328000D03*
D22*
X72868000Y-84328000D03*
D23*
X74168000Y-84328000D03*
D24*
X106299000Y-94741000D03*
X106299000Y-91441000D03*
D17*
X109728000Y-86805000D03*
X109728000Y-88455000D03*
D25*
X76088000Y-102616000D03*
D26*
X74788000Y-102616000D03*
D27*
X122364000Y-94996000D03*
X120714000Y-94996000D03*
D28*
X76327000Y-104635000D03*
X76327000Y-106185000D03*
D29*
X96862000Y-82847000D03*
X96862000Y-85047000D03*
X95162000Y-85047000D03*
X95162000Y-82847000D03*
D30*
X95688000Y-97928000D03*
D31*
X94888000Y-97928000D03*
X94088000Y-97928000D03*
D30*
X93288000Y-97928000D03*
X93288000Y-96128000D03*
D31*
X94088000Y-96128000D03*
X94888000Y-96128000D03*
D30*
X95688000Y-96128000D03*
D24*
X106299000Y-104647000D03*
X106299000Y-101347000D03*
D32*
X91734008Y-86446992D03*
X90637992Y-87543008D03*
D21*
X71568000Y-89408000D03*
D22*
X72868000Y-89408000D03*
D23*
X74168000Y-89408000D03*
D27*
X122364000Y-85090000D03*
X120714000Y-85090000D03*
D17*
X109728000Y-96711000D03*
X109728000Y-98361000D03*
D21*
X71568000Y-81788000D03*
D22*
X72868000Y-81788000D03*
D23*
X74168000Y-81788000D03*
D27*
X122364000Y-104902000D03*
X120714000Y-104902000D03*
D33*
X80795500Y-107201000D03*
X78970500Y-107201000D03*
D16*
X120714000Y-98044000D03*
X122364000Y-98044000D03*
D17*
X108204000Y-92393000D03*
X108204000Y-94043000D03*
D27*
X122364000Y-79756000D03*
X120714000Y-79756000D03*
D34*
X109728000Y-103949000D03*
X109728000Y-102299000D03*
D17*
X111252000Y-92393000D03*
X111252000Y-94043000D03*
D27*
X122364000Y-109474000D03*
X120714000Y-109474000D03*
D17*
X111252000Y-72581000D03*
X111252000Y-74231000D03*
D27*
X122364000Y-75184000D03*
X120714000Y-75184000D03*
D35*
X97114992Y-94274008D03*
X98211008Y-93177992D03*
D36*
X77978000Y-100027000D03*
X79248000Y-100027000D03*
X80518000Y-100027000D03*
X81788000Y-100027000D03*
X81788000Y-104977000D03*
X80518000Y-104977000D03*
X79248000Y-104977000D03*
X77978000Y-104977000D03*
D27*
X122364000Y-99568000D03*
X120714000Y-99568000D03*
X122364000Y-101854000D03*
X120714000Y-101854000D03*
D16*
X112810404Y-98432040D03*
X114460404Y-98432040D03*
D34*
X111252000Y-78549000D03*
X111252000Y-76899000D03*
D17*
X109728000Y-106617000D03*
X109728000Y-108267000D03*
X108204000Y-106617000D03*
X108204000Y-108267000D03*
D37*
X72771000Y-103862500D03*
X72771000Y-105687500D03*
D17*
X111252000Y-102299000D03*
X111252000Y-103949000D03*
D34*
X109728000Y-84137000D03*
X109728000Y-82487000D03*
D16*
X72835000Y-77216000D03*
X74485000Y-77216000D03*
X120714000Y-103378000D03*
X122364000Y-103378000D03*
X120714000Y-93472000D03*
X122364000Y-93472000D03*
X112810404Y-78620040D03*
X114460404Y-78620040D03*
D38*
X90587751Y-85053249D03*
X89244249Y-86396751D03*
D17*
X111252000Y-82487000D03*
X111252000Y-84137000D03*
D21*
X71568000Y-86868000D03*
D22*
X72868000Y-86868000D03*
D23*
X74168000Y-86868000D03*
D39*
X69096000Y-104363000D03*
X69096000Y-98583000D03*
D40*
X70541000Y-104723000D03*
X70541000Y-103923000D03*
D41*
X70541000Y-102723000D03*
X70541000Y-101723000D03*
X70541000Y-101223000D03*
X70541000Y-100223000D03*
D40*
X70541000Y-99023000D03*
X70541000Y-98223000D03*
X70541000Y-98223000D03*
X70541000Y-99023000D03*
D41*
X70541000Y-99723000D03*
X70541000Y-100723000D03*
X70541000Y-102223000D03*
X70541000Y-103223000D03*
D40*
X70541000Y-103923000D03*
X70541000Y-104723000D03*
D42*
X69626000Y-97153000D03*
D43*
X65446000Y-97153000D03*
X65446000Y-105793000D03*
D42*
X69626000Y-105793000D03*
D27*
X122364000Y-82042000D03*
X120714000Y-82042000D03*
X122364000Y-89662000D03*
X120714000Y-89662000D03*
D28*
X98552000Y-83172000D03*
X98552000Y-84722000D03*
D24*
X106299000Y-84835000D03*
X106299000Y-81535000D03*
D16*
X120714000Y-86614000D03*
X122364000Y-86614000D03*
D34*
X109728000Y-94043000D03*
X109728000Y-92393000D03*
D16*
X120714000Y-76708000D03*
X122364000Y-76708000D03*
D17*
X108204000Y-102299000D03*
X108204000Y-103949000D03*
D25*
X76088000Y-100076000D03*
D26*
X74788000Y-100076000D03*
D17*
X109728000Y-76899000D03*
X109728000Y-78549000D03*
D16*
X120714000Y-96520000D03*
X122364000Y-96520000D03*
D24*
X106299000Y-106046000D03*
X106299000Y-109346000D03*
D17*
X108204000Y-96711000D03*
X108204000Y-98361000D03*
D34*
X111252000Y-98361000D03*
X111252000Y-96711000D03*
D17*
X108204000Y-82487000D03*
X108204000Y-84137000D03*
X108204000Y-86805000D03*
X108204000Y-88455000D03*
D44*
X106299000Y-70117000D03*
X106299000Y-68567000D03*
D17*
X98679000Y-96203000D03*
X98679000Y-97853000D03*
D34*
X111252000Y-108267000D03*
X111252000Y-106617000D03*
X104775000Y-70167000D03*
X104775000Y-68517000D03*
D45*
X80658000Y-97930000D03*
X79108000Y-97930000D03*
D46*
X94439500Y-110932000D03*
X94439500Y-109032000D03*
X96314500Y-109982000D03*
D24*
X106299000Y-96140000D03*
X106299000Y-99440000D03*
D47*
X69027000Y-95123000D03*
X70927000Y-95123000D03*
D24*
X106299000Y-76328000D03*
X106299000Y-79628000D03*
D34*
X111252000Y-88455000D03*
X111252000Y-86805000D03*
D17*
X107823000Y-68517000D03*
X107823000Y-70167000D03*
D16*
X112810404Y-108338040D03*
X114460404Y-108338040D03*
X120714000Y-83566000D03*
X122364000Y-83566000D03*
D47*
X69027000Y-93091000D03*
X70927000Y-93091000D03*
D17*
X97155000Y-96203000D03*
X97155000Y-97853000D03*
D24*
X106299000Y-86234000D03*
X106299000Y-89534000D03*
D16*
X120714000Y-107950000D03*
X122364000Y-107950000D03*
D48*
X81291000Y-83128000D03*
D49*
X81291000Y-83928000D03*
X81291000Y-84728000D03*
D48*
X81291000Y-85528000D03*
X79491000Y-85528000D03*
D49*
X79491000Y-84728000D03*
X79491000Y-83928000D03*
D48*
X79491000Y-83128000D03*
D24*
X106299000Y-74929000D03*
X106299000Y-71629000D03*
D34*
X109728000Y-74231000D03*
X109728000Y-72581000D03*
D27*
X122364000Y-91948000D03*
X120714000Y-91948000D03*
D17*
X108204000Y-76899000D03*
X108204000Y-78549000D03*
D16*
X120714000Y-78232000D03*
X122364000Y-78232000D03*
D50*
X67437000Y-95021500D03*
X67437000Y-93446500D03*
D21*
X71568000Y-79275000D03*
D22*
X72868000Y-79275000D03*
D23*
X74168000Y-79275000D03*
D16*
X120714000Y-88138000D03*
X122364000Y-88138000D03*
D27*
X122364000Y-72136000D03*
X120714000Y-72136000D03*
D51*
X72771000Y-99210500D03*
X72771000Y-97385500D03*
D16*
X112810404Y-88526040D03*
X114460404Y-88526040D03*
D52*
X128397000Y-80899000D03*
D53*
X112268000Y-76454000D03*
D52*
X100457000Y-96393000D03*
X100457000Y-101473000D03*
X108204000Y-100711000D03*
X108204000Y-71374000D03*
X103759000Y-76749000D03*
X100457000Y-93853000D03*
X122555000Y-67437000D03*
X100457000Y-83185000D03*
X100457000Y-106553000D03*
X100457000Y-98933000D03*
X100457000Y-78105000D03*
X100457000Y-104013000D03*
X100457000Y-111633000D03*
X124333000Y-100711000D03*
X100457000Y-67945000D03*
X103886000Y-92456000D03*
X100457000Y-109093000D03*
X119126000Y-100711000D03*
X103759000Y-89789000D03*
X100457000Y-73025000D03*
D53*
X112268000Y-106172000D03*
X112268000Y-86360000D03*
D52*
X119126000Y-80899000D03*
X119126000Y-90805000D03*
X108204000Y-80899000D03*
D53*
X112268000Y-96266000D03*
D52*
X100457000Y-80645000D03*
X102616000Y-100838000D03*
X100457000Y-114173000D03*
X108204000Y-90805000D03*
X116586000Y-111506000D03*
X100457000Y-75565000D03*
X111760000Y-69977000D03*
X124333000Y-80899000D03*
X100457000Y-70485000D03*
X124333000Y-90805000D03*
X128397000Y-100711000D03*
X121539000Y-113411000D03*
X108585000Y-110490000D03*
X128397000Y-90805000D03*
D53*
X106045000Y-73406000D03*
X113665000Y-102621449D03*
X113665000Y-92715449D03*
D52*
X115062000Y-110325500D03*
D53*
X113666844Y-72906034D03*
X113665000Y-82809449D03*
D52*
X89154000Y-84328000D03*
X98820351Y-95223457D03*
X77470000Y-103378000D03*
X96896701Y-93095299D03*
X71628000Y-90717500D03*
X93980000Y-82804000D03*
D53*
X85598000Y-106426000D03*
D52*
X85979000Y-67818000D03*
X65786000Y-101346000D03*
X87376000Y-99568000D03*
X78105000Y-113665000D03*
X98044000Y-106553000D03*
D53*
X93091000Y-89154000D03*
X93853000Y-89154000D03*
D52*
X98044000Y-114173000D03*
X68834000Y-112649000D03*
X65659000Y-69088000D03*
D53*
X93091000Y-90043000D03*
D52*
X98171000Y-73025000D03*
X66802000Y-77089000D03*
X68580000Y-82804000D03*
X88011000Y-87630000D03*
X85979000Y-72390000D03*
D53*
X93853000Y-90043000D03*
D52*
X98171000Y-70485000D03*
X98044000Y-111633000D03*
X70358000Y-71882000D03*
X98679000Y-94234000D03*
X63754000Y-111379000D03*
X97155000Y-103378000D03*
D53*
X95123000Y-89154000D03*
D52*
X98933000Y-85852000D03*
X77597000Y-97917000D03*
X77139050Y-105463242D03*
X68580000Y-88265000D03*
X76835000Y-69723000D03*
X80645000Y-90551000D03*
X90576264Y-86495150D03*
X79248000Y-101473000D03*
X98171000Y-67945000D03*
X98044000Y-109093000D03*
X73914000Y-95504000D03*
X81915000Y-95504000D03*
D53*
X91313000Y-92964000D03*
D52*
X76962000Y-74041000D03*
X105029000Y-104648002D03*
D53*
X94543500Y-86357000D03*
D52*
X104711462Y-71090368D03*
X105029000Y-84863334D03*
X105029000Y-94755668D03*
X105029000Y-74971000D03*
X75057000Y-91567000D03*
X116586000Y-80899000D03*
X116586000Y-90805000D03*
X116586000Y-100711000D03*
D53*
X92202000Y-102108000D03*
X92075000Y-100838000D03*
X88773000Y-89599500D03*
X88138000Y-90099500D03*
X84582000Y-83820000D03*
X85090000Y-105283000D03*
X86233000Y-104267000D03*
X85725000Y-83439000D03*
X97028000Y-95353500D03*
X75027000Y-88138000D03*
X72868000Y-88138000D03*
X75027000Y-85598000D03*
X72995000Y-85598000D03*
X72868000Y-83058000D03*
X75027000Y-83058000D03*
X75027000Y-80518000D03*
X72868000Y-80518000D03*
X81788000Y-101600000D03*
X83693000Y-101600000D03*
X112777310Y-86992320D03*
X113792000Y-86934500D03*
X112777310Y-77086320D03*
X113792000Y-77028500D03*
X112777310Y-96898320D03*
X113792000Y-96840500D03*
X112777310Y-106804320D03*
X113792000Y-106746500D03*
X110779933Y-81467404D03*
X110779933Y-71561404D03*
X110779933Y-91373404D03*
X110779933Y-101279404D03*
X107452071Y-106620251D03*
X108204000Y-83336500D03*
X108204000Y-73430500D03*
X108204000Y-93242500D03*
X108204000Y-103148500D03*
X108204000Y-89304500D03*
X110419000Y-85273000D03*
X108204000Y-79398500D03*
X110419000Y-75367000D03*
X108204000Y-99210500D03*
X110419000Y-95179000D03*
X108204000Y-109116500D03*
X110419000Y-105085000D03*
X77216000Y-100076000D03*
X83693000Y-100076000D03*
X112014000Y-85210500D03*
X114779501Y-86594931D03*
X122364000Y-88901181D03*
X123063000Y-85090000D03*
X114779501Y-76688931D03*
X112014000Y-75304500D03*
X122364000Y-78995181D03*
X123063000Y-75184000D03*
X114779501Y-96500931D03*
X112014000Y-95116500D03*
X122364000Y-98807181D03*
X123063000Y-94996000D03*
X112014000Y-105022500D03*
X122364000Y-108713181D03*
X114779501Y-106406931D03*
X123063000Y-104902000D03*
D52*
X92964000Y-82296000D03*
D53*
X107452071Y-86808251D03*
X107452071Y-76902251D03*
X107452071Y-96714251D03*
X110429749Y-89504928D03*
X110429749Y-79598928D03*
X110429749Y-99410928D03*
X110429749Y-109316928D03*
M02*
