%TF.GenerationSoftware,KiCad,Pcbnew,(6.0.11)*%
%TF.CreationDate,2023-05-24T19:33:46+02:00*%
%TF.ProjectId,an2can,616e3263-616e-42e6-9b69-6361645f7063,V0*%
%TF.SameCoordinates,Original*%
%TF.FileFunction,Drillmap*%
%TF.FilePolarity,Positive*%
%FSLAX45Y45*%
G04 Gerber Fmt 4.5, Leading zero omitted, Abs format (unit mm)*
G04 Created by KiCad (PCBNEW (6.0.11)) date 2023-05-24 19:33:46*
%MOMM*%
%LPD*%
G01*
G04 APERTURE LIST*
%ADD10C,0.050000*%
%ADD11C,0.200000*%
%ADD12C,0.065000*%
%ADD13C,0.170000*%
%ADD14C,0.320000*%
G04 APERTURE END LIST*
D10*
X12992100Y-6891300D02*
G75*
G03*
X12692100Y-6591300I-300000J0D01*
G01*
X6527600Y-6591300D02*
X12692100Y-6591300D01*
X6527600Y-6591296D02*
G75*
G03*
X6223000Y-6883400I-12240J-292104D01*
G01*
X6223000Y-6883400D02*
X6223000Y-11268668D01*
X12992100Y-11267700D02*
X12992100Y-6891300D01*
X6223002Y-11268668D02*
G75*
G03*
X6523000Y-11568668I299998J-2D01*
G01*
X12692100Y-11567700D02*
G75*
G03*
X12992100Y-11267700I0J300000D01*
G01*
X12692100Y-11567700D02*
X6523000Y-11568668D01*
D11*
D12*
X6877100Y-9825800D02*
X6942100Y-9890800D01*
X6942100Y-9825800D02*
X6877100Y-9890800D01*
X6877100Y-10403800D02*
X6942100Y-10468800D01*
X6942100Y-10403800D02*
X6877100Y-10468800D01*
D13*
X6678100Y-11000200D02*
G75*
G03*
X6678100Y-11000200I-85000J0D01*
G01*
X6678100Y-11250200D02*
G75*
G03*
X6678100Y-11250200I-85000J0D01*
G01*
X12711600Y-7469600D02*
G75*
G03*
X12711600Y-7469600I-85000J0D01*
G01*
X12711600Y-7719600D02*
G75*
G03*
X12711600Y-7719600I-85000J0D01*
G01*
X12711600Y-8460200D02*
G75*
G03*
X12711600Y-8460200I-85000J0D01*
G01*
X12711600Y-8710200D02*
G75*
G03*
X12711600Y-8710200I-85000J0D01*
G01*
X12711600Y-9450800D02*
G75*
G03*
X12711600Y-9450800I-85000J0D01*
G01*
X12711600Y-9700800D02*
G75*
G03*
X12711600Y-9700800I-85000J0D01*
G01*
X12711600Y-10428700D02*
G75*
G03*
X12711600Y-10428700I-85000J0D01*
G01*
X12711600Y-10678700D02*
G75*
G03*
X12711600Y-10678700I-85000J0D01*
G01*
D14*
X8227000Y-6889500D02*
X8227000Y-7209500D01*
X8067000Y-7049500D02*
X8387000Y-7049500D01*
X8229600Y-11016000D02*
X8229600Y-11336000D01*
X8069600Y-11176000D02*
X8389600Y-11176000D01*
X12611100Y-6799600D02*
X12611100Y-7119600D01*
X12451100Y-6959600D02*
X12771100Y-6959600D01*
X12611100Y-11028700D02*
X12611100Y-11348700D01*
X12451100Y-11188700D02*
X12771100Y-11188700D01*
D11*
X6478119Y-11881644D02*
X6478119Y-11681644D01*
X6525738Y-11681644D01*
X6554309Y-11691168D01*
X6573357Y-11710216D01*
X6582881Y-11729263D01*
X6592405Y-11767358D01*
X6592405Y-11795930D01*
X6582881Y-11834025D01*
X6573357Y-11853073D01*
X6554309Y-11872120D01*
X6525738Y-11881644D01*
X6478119Y-11881644D01*
X6678119Y-11881644D02*
X6678119Y-11748311D01*
X6678119Y-11786406D02*
X6687643Y-11767358D01*
X6697167Y-11757835D01*
X6716214Y-11748311D01*
X6735262Y-11748311D01*
X6801928Y-11881644D02*
X6801928Y-11748311D01*
X6801928Y-11681644D02*
X6792405Y-11691168D01*
X6801928Y-11700692D01*
X6811452Y-11691168D01*
X6801928Y-11681644D01*
X6801928Y-11700692D01*
X6925738Y-11881644D02*
X6906690Y-11872120D01*
X6897167Y-11853073D01*
X6897167Y-11681644D01*
X7030500Y-11881644D02*
X7011452Y-11872120D01*
X7001928Y-11853073D01*
X7001928Y-11681644D01*
X7259071Y-11881644D02*
X7259071Y-11681644D01*
X7325738Y-11824501D01*
X7392405Y-11681644D01*
X7392405Y-11881644D01*
X7573357Y-11881644D02*
X7573357Y-11776882D01*
X7563833Y-11757835D01*
X7544786Y-11748311D01*
X7506690Y-11748311D01*
X7487643Y-11757835D01*
X7573357Y-11872120D02*
X7554309Y-11881644D01*
X7506690Y-11881644D01*
X7487643Y-11872120D01*
X7478119Y-11853073D01*
X7478119Y-11834025D01*
X7487643Y-11814977D01*
X7506690Y-11805454D01*
X7554309Y-11805454D01*
X7573357Y-11795930D01*
X7668595Y-11748311D02*
X7668595Y-11948311D01*
X7668595Y-11757835D02*
X7687643Y-11748311D01*
X7725738Y-11748311D01*
X7744786Y-11757835D01*
X7754309Y-11767358D01*
X7763833Y-11786406D01*
X7763833Y-11843549D01*
X7754309Y-11862596D01*
X7744786Y-11872120D01*
X7725738Y-11881644D01*
X7687643Y-11881644D01*
X7668595Y-11872120D01*
X7849548Y-11862596D02*
X7859071Y-11872120D01*
X7849548Y-11881644D01*
X7840024Y-11872120D01*
X7849548Y-11862596D01*
X7849548Y-11881644D01*
X7849548Y-11757835D02*
X7859071Y-11767358D01*
X7849548Y-11776882D01*
X7840024Y-11767358D01*
X7849548Y-11757835D01*
X7849548Y-11776882D01*
D12*
X6155500Y-12178668D02*
X6220500Y-12243668D01*
X6220500Y-12178668D02*
X6155500Y-12243668D01*
D11*
X6516214Y-12101644D02*
X6535262Y-12101644D01*
X6554309Y-12111168D01*
X6563833Y-12120692D01*
X6573357Y-12139739D01*
X6582881Y-12177835D01*
X6582881Y-12225454D01*
X6573357Y-12263549D01*
X6563833Y-12282596D01*
X6554309Y-12292120D01*
X6535262Y-12301644D01*
X6516214Y-12301644D01*
X6497167Y-12292120D01*
X6487643Y-12282596D01*
X6478119Y-12263549D01*
X6468595Y-12225454D01*
X6468595Y-12177835D01*
X6478119Y-12139739D01*
X6487643Y-12120692D01*
X6497167Y-12111168D01*
X6516214Y-12101644D01*
X6668595Y-12282596D02*
X6678119Y-12292120D01*
X6668595Y-12301644D01*
X6659071Y-12292120D01*
X6668595Y-12282596D01*
X6668595Y-12301644D01*
X6849548Y-12101644D02*
X6811452Y-12101644D01*
X6792405Y-12111168D01*
X6782881Y-12120692D01*
X6763833Y-12149263D01*
X6754309Y-12187358D01*
X6754309Y-12263549D01*
X6763833Y-12282596D01*
X6773357Y-12292120D01*
X6792405Y-12301644D01*
X6830500Y-12301644D01*
X6849548Y-12292120D01*
X6859071Y-12282596D01*
X6868595Y-12263549D01*
X6868595Y-12215930D01*
X6859071Y-12196882D01*
X6849548Y-12187358D01*
X6830500Y-12177835D01*
X6792405Y-12177835D01*
X6773357Y-12187358D01*
X6763833Y-12196882D01*
X6754309Y-12215930D01*
X7049548Y-12101644D02*
X6954309Y-12101644D01*
X6944786Y-12196882D01*
X6954309Y-12187358D01*
X6973357Y-12177835D01*
X7020976Y-12177835D01*
X7040024Y-12187358D01*
X7049548Y-12196882D01*
X7059071Y-12215930D01*
X7059071Y-12263549D01*
X7049548Y-12282596D01*
X7040024Y-12292120D01*
X7020976Y-12301644D01*
X6973357Y-12301644D01*
X6954309Y-12292120D01*
X6944786Y-12282596D01*
X7182881Y-12101644D02*
X7201928Y-12101644D01*
X7220976Y-12111168D01*
X7230500Y-12120692D01*
X7240024Y-12139739D01*
X7249548Y-12177835D01*
X7249548Y-12225454D01*
X7240024Y-12263549D01*
X7230500Y-12282596D01*
X7220976Y-12292120D01*
X7201928Y-12301644D01*
X7182881Y-12301644D01*
X7163833Y-12292120D01*
X7154309Y-12282596D01*
X7144786Y-12263549D01*
X7135262Y-12225454D01*
X7135262Y-12177835D01*
X7144786Y-12139739D01*
X7154309Y-12120692D01*
X7163833Y-12111168D01*
X7182881Y-12101644D01*
X7335262Y-12301644D02*
X7335262Y-12168311D01*
X7335262Y-12187358D02*
X7344786Y-12177835D01*
X7363833Y-12168311D01*
X7392405Y-12168311D01*
X7411452Y-12177835D01*
X7420976Y-12196882D01*
X7420976Y-12301644D01*
X7420976Y-12196882D02*
X7430500Y-12177835D01*
X7449548Y-12168311D01*
X7478119Y-12168311D01*
X7497167Y-12177835D01*
X7506690Y-12196882D01*
X7506690Y-12301644D01*
X7601928Y-12301644D02*
X7601928Y-12168311D01*
X7601928Y-12187358D02*
X7611452Y-12177835D01*
X7630500Y-12168311D01*
X7659071Y-12168311D01*
X7678119Y-12177835D01*
X7687643Y-12196882D01*
X7687643Y-12301644D01*
X7687643Y-12196882D02*
X7697167Y-12177835D01*
X7716214Y-12168311D01*
X7744786Y-12168311D01*
X7763833Y-12177835D01*
X7773357Y-12196882D01*
X7773357Y-12301644D01*
X8163833Y-12092120D02*
X7992405Y-12349263D01*
X8420976Y-12101644D02*
X8440024Y-12101644D01*
X8459071Y-12111168D01*
X8468595Y-12120692D01*
X8478119Y-12139739D01*
X8487643Y-12177835D01*
X8487643Y-12225454D01*
X8478119Y-12263549D01*
X8468595Y-12282596D01*
X8459071Y-12292120D01*
X8440024Y-12301644D01*
X8420976Y-12301644D01*
X8401929Y-12292120D01*
X8392405Y-12282596D01*
X8382881Y-12263549D01*
X8373357Y-12225454D01*
X8373357Y-12177835D01*
X8382881Y-12139739D01*
X8392405Y-12120692D01*
X8401929Y-12111168D01*
X8420976Y-12101644D01*
X8573357Y-12282596D02*
X8582881Y-12292120D01*
X8573357Y-12301644D01*
X8563833Y-12292120D01*
X8573357Y-12282596D01*
X8573357Y-12301644D01*
X8706690Y-12101644D02*
X8725738Y-12101644D01*
X8744786Y-12111168D01*
X8754310Y-12120692D01*
X8763833Y-12139739D01*
X8773357Y-12177835D01*
X8773357Y-12225454D01*
X8763833Y-12263549D01*
X8754310Y-12282596D01*
X8744786Y-12292120D01*
X8725738Y-12301644D01*
X8706690Y-12301644D01*
X8687643Y-12292120D01*
X8678119Y-12282596D01*
X8668595Y-12263549D01*
X8659071Y-12225454D01*
X8659071Y-12177835D01*
X8668595Y-12139739D01*
X8678119Y-12120692D01*
X8687643Y-12111168D01*
X8706690Y-12101644D01*
X8849548Y-12120692D02*
X8859071Y-12111168D01*
X8878119Y-12101644D01*
X8925738Y-12101644D01*
X8944786Y-12111168D01*
X8954310Y-12120692D01*
X8963833Y-12139739D01*
X8963833Y-12158787D01*
X8954310Y-12187358D01*
X8840024Y-12301644D01*
X8963833Y-12301644D01*
X9144786Y-12101644D02*
X9049548Y-12101644D01*
X9040024Y-12196882D01*
X9049548Y-12187358D01*
X9068595Y-12177835D01*
X9116214Y-12177835D01*
X9135262Y-12187358D01*
X9144786Y-12196882D01*
X9154310Y-12215930D01*
X9154310Y-12263549D01*
X9144786Y-12282596D01*
X9135262Y-12292120D01*
X9116214Y-12301644D01*
X9068595Y-12301644D01*
X9049548Y-12292120D01*
X9040024Y-12282596D01*
X9325738Y-12101644D02*
X9287643Y-12101644D01*
X9268595Y-12111168D01*
X9259071Y-12120692D01*
X9240024Y-12149263D01*
X9230500Y-12187358D01*
X9230500Y-12263549D01*
X9240024Y-12282596D01*
X9249548Y-12292120D01*
X9268595Y-12301644D01*
X9306690Y-12301644D01*
X9325738Y-12292120D01*
X9335262Y-12282596D01*
X9344786Y-12263549D01*
X9344786Y-12215930D01*
X9335262Y-12196882D01*
X9325738Y-12187358D01*
X9306690Y-12177835D01*
X9268595Y-12177835D01*
X9249548Y-12187358D01*
X9240024Y-12196882D01*
X9230500Y-12215930D01*
X9420976Y-12101644D02*
X9420976Y-12139739D01*
X9497167Y-12101644D02*
X9497167Y-12139739D01*
X9792405Y-12377835D02*
X9782881Y-12368311D01*
X9763833Y-12339739D01*
X9754310Y-12320692D01*
X9744786Y-12292120D01*
X9735262Y-12244501D01*
X9735262Y-12206406D01*
X9744786Y-12158787D01*
X9754310Y-12130216D01*
X9763833Y-12111168D01*
X9782881Y-12082596D01*
X9792405Y-12073073D01*
X9859071Y-12120692D02*
X9868595Y-12111168D01*
X9887643Y-12101644D01*
X9935262Y-12101644D01*
X9954310Y-12111168D01*
X9963833Y-12120692D01*
X9973357Y-12139739D01*
X9973357Y-12158787D01*
X9963833Y-12187358D01*
X9849548Y-12301644D01*
X9973357Y-12301644D01*
X10211452Y-12301644D02*
X10211452Y-12101644D01*
X10297167Y-12301644D02*
X10297167Y-12196882D01*
X10287643Y-12177835D01*
X10268595Y-12168311D01*
X10240024Y-12168311D01*
X10220976Y-12177835D01*
X10211452Y-12187358D01*
X10420976Y-12301644D02*
X10401929Y-12292120D01*
X10392405Y-12282596D01*
X10382881Y-12263549D01*
X10382881Y-12206406D01*
X10392405Y-12187358D01*
X10401929Y-12177835D01*
X10420976Y-12168311D01*
X10449548Y-12168311D01*
X10468595Y-12177835D01*
X10478119Y-12187358D01*
X10487643Y-12206406D01*
X10487643Y-12263549D01*
X10478119Y-12282596D01*
X10468595Y-12292120D01*
X10449548Y-12301644D01*
X10420976Y-12301644D01*
X10601929Y-12301644D02*
X10582881Y-12292120D01*
X10573357Y-12273073D01*
X10573357Y-12101644D01*
X10754310Y-12292120D02*
X10735262Y-12301644D01*
X10697167Y-12301644D01*
X10678119Y-12292120D01*
X10668595Y-12273073D01*
X10668595Y-12196882D01*
X10678119Y-12177835D01*
X10697167Y-12168311D01*
X10735262Y-12168311D01*
X10754310Y-12177835D01*
X10763833Y-12196882D01*
X10763833Y-12215930D01*
X10668595Y-12234977D01*
X10840024Y-12292120D02*
X10859071Y-12301644D01*
X10897167Y-12301644D01*
X10916214Y-12292120D01*
X10925738Y-12273073D01*
X10925738Y-12263549D01*
X10916214Y-12244501D01*
X10897167Y-12234977D01*
X10868595Y-12234977D01*
X10849548Y-12225454D01*
X10840024Y-12206406D01*
X10840024Y-12196882D01*
X10849548Y-12177835D01*
X10868595Y-12168311D01*
X10897167Y-12168311D01*
X10916214Y-12177835D01*
X10992405Y-12377835D02*
X11001929Y-12368311D01*
X11020976Y-12339739D01*
X11030500Y-12320692D01*
X11040024Y-12292120D01*
X11049548Y-12244501D01*
X11049548Y-12206406D01*
X11040024Y-12158787D01*
X11030500Y-12130216D01*
X11020976Y-12111168D01*
X11001929Y-12082596D01*
X10992405Y-12073073D01*
X11354309Y-12377835D02*
X11344786Y-12368311D01*
X11325738Y-12339739D01*
X11316214Y-12320692D01*
X11306690Y-12292120D01*
X11297167Y-12244501D01*
X11297167Y-12206406D01*
X11306690Y-12158787D01*
X11316214Y-12130216D01*
X11325738Y-12111168D01*
X11344786Y-12082596D01*
X11354309Y-12073073D01*
X11430500Y-12168311D02*
X11430500Y-12301644D01*
X11430500Y-12187358D02*
X11440024Y-12177835D01*
X11459071Y-12168311D01*
X11487643Y-12168311D01*
X11506690Y-12177835D01*
X11516214Y-12196882D01*
X11516214Y-12301644D01*
X11640024Y-12301644D02*
X11620976Y-12292120D01*
X11611452Y-12282596D01*
X11601928Y-12263549D01*
X11601928Y-12206406D01*
X11611452Y-12187358D01*
X11620976Y-12177835D01*
X11640024Y-12168311D01*
X11668595Y-12168311D01*
X11687643Y-12177835D01*
X11697167Y-12187358D01*
X11706690Y-12206406D01*
X11706690Y-12263549D01*
X11697167Y-12282596D01*
X11687643Y-12292120D01*
X11668595Y-12301644D01*
X11640024Y-12301644D01*
X11763833Y-12168311D02*
X11840024Y-12168311D01*
X11792405Y-12101644D02*
X11792405Y-12273073D01*
X11801928Y-12292120D01*
X11820976Y-12301644D01*
X11840024Y-12301644D01*
X12059071Y-12168311D02*
X12059071Y-12368311D01*
X12059071Y-12177835D02*
X12078119Y-12168311D01*
X12116214Y-12168311D01*
X12135262Y-12177835D01*
X12144786Y-12187358D01*
X12154309Y-12206406D01*
X12154309Y-12263549D01*
X12144786Y-12282596D01*
X12135262Y-12292120D01*
X12116214Y-12301644D01*
X12078119Y-12301644D01*
X12059071Y-12292120D01*
X12268595Y-12301644D02*
X12249548Y-12292120D01*
X12240024Y-12273073D01*
X12240024Y-12101644D01*
X12430500Y-12301644D02*
X12430500Y-12196882D01*
X12420976Y-12177835D01*
X12401928Y-12168311D01*
X12363833Y-12168311D01*
X12344786Y-12177835D01*
X12430500Y-12292120D02*
X12411452Y-12301644D01*
X12363833Y-12301644D01*
X12344786Y-12292120D01*
X12335262Y-12273073D01*
X12335262Y-12254025D01*
X12344786Y-12234977D01*
X12363833Y-12225454D01*
X12411452Y-12225454D01*
X12430500Y-12215930D01*
X12497167Y-12168311D02*
X12573357Y-12168311D01*
X12525738Y-12101644D02*
X12525738Y-12273073D01*
X12535262Y-12292120D01*
X12554309Y-12301644D01*
X12573357Y-12301644D01*
X12716214Y-12292120D02*
X12697167Y-12301644D01*
X12659071Y-12301644D01*
X12640024Y-12292120D01*
X12630500Y-12273073D01*
X12630500Y-12196882D01*
X12640024Y-12177835D01*
X12659071Y-12168311D01*
X12697167Y-12168311D01*
X12716214Y-12177835D01*
X12725738Y-12196882D01*
X12725738Y-12215930D01*
X12630500Y-12234977D01*
X12897167Y-12301644D02*
X12897167Y-12101644D01*
X12897167Y-12292120D02*
X12878119Y-12301644D01*
X12840024Y-12301644D01*
X12820976Y-12292120D01*
X12811452Y-12282596D01*
X12801928Y-12263549D01*
X12801928Y-12206406D01*
X12811452Y-12187358D01*
X12820976Y-12177835D01*
X12840024Y-12168311D01*
X12878119Y-12168311D01*
X12897167Y-12177835D01*
X12973357Y-12377835D02*
X12982881Y-12368311D01*
X13001928Y-12339739D01*
X13011452Y-12320692D01*
X13020976Y-12292120D01*
X13030500Y-12244501D01*
X13030500Y-12206406D01*
X13020976Y-12158787D01*
X13011452Y-12130216D01*
X13001928Y-12111168D01*
X12982881Y-12082596D01*
X12973357Y-12073073D01*
D13*
X6220500Y-12475168D02*
G75*
G03*
X6220500Y-12475168I-85000J0D01*
G01*
D11*
X6582881Y-12565644D02*
X6468595Y-12565644D01*
X6525738Y-12565644D02*
X6525738Y-12365644D01*
X6506690Y-12394216D01*
X6487643Y-12413263D01*
X6468595Y-12422787D01*
X6668595Y-12546596D02*
X6678119Y-12556120D01*
X6668595Y-12565644D01*
X6659071Y-12556120D01*
X6668595Y-12546596D01*
X6668595Y-12565644D01*
X6744786Y-12365644D02*
X6878119Y-12365644D01*
X6792405Y-12565644D01*
X6992405Y-12365644D02*
X7011452Y-12365644D01*
X7030500Y-12375168D01*
X7040024Y-12384692D01*
X7049548Y-12403739D01*
X7059071Y-12441835D01*
X7059071Y-12489454D01*
X7049548Y-12527549D01*
X7040024Y-12546596D01*
X7030500Y-12556120D01*
X7011452Y-12565644D01*
X6992405Y-12565644D01*
X6973357Y-12556120D01*
X6963833Y-12546596D01*
X6954309Y-12527549D01*
X6944786Y-12489454D01*
X6944786Y-12441835D01*
X6954309Y-12403739D01*
X6963833Y-12384692D01*
X6973357Y-12375168D01*
X6992405Y-12365644D01*
X7182881Y-12365644D02*
X7201928Y-12365644D01*
X7220976Y-12375168D01*
X7230500Y-12384692D01*
X7240024Y-12403739D01*
X7249548Y-12441835D01*
X7249548Y-12489454D01*
X7240024Y-12527549D01*
X7230500Y-12546596D01*
X7220976Y-12556120D01*
X7201928Y-12565644D01*
X7182881Y-12565644D01*
X7163833Y-12556120D01*
X7154309Y-12546596D01*
X7144786Y-12527549D01*
X7135262Y-12489454D01*
X7135262Y-12441835D01*
X7144786Y-12403739D01*
X7154309Y-12384692D01*
X7163833Y-12375168D01*
X7182881Y-12365644D01*
X7335262Y-12565644D02*
X7335262Y-12432311D01*
X7335262Y-12451358D02*
X7344786Y-12441835D01*
X7363833Y-12432311D01*
X7392405Y-12432311D01*
X7411452Y-12441835D01*
X7420976Y-12460882D01*
X7420976Y-12565644D01*
X7420976Y-12460882D02*
X7430500Y-12441835D01*
X7449548Y-12432311D01*
X7478119Y-12432311D01*
X7497167Y-12441835D01*
X7506690Y-12460882D01*
X7506690Y-12565644D01*
X7601928Y-12565644D02*
X7601928Y-12432311D01*
X7601928Y-12451358D02*
X7611452Y-12441835D01*
X7630500Y-12432311D01*
X7659071Y-12432311D01*
X7678119Y-12441835D01*
X7687643Y-12460882D01*
X7687643Y-12565644D01*
X7687643Y-12460882D02*
X7697167Y-12441835D01*
X7716214Y-12432311D01*
X7744786Y-12432311D01*
X7763833Y-12441835D01*
X7773357Y-12460882D01*
X7773357Y-12565644D01*
X8163833Y-12356120D02*
X7992405Y-12613263D01*
X8420976Y-12365644D02*
X8440024Y-12365644D01*
X8459071Y-12375168D01*
X8468595Y-12384692D01*
X8478119Y-12403739D01*
X8487643Y-12441835D01*
X8487643Y-12489454D01*
X8478119Y-12527549D01*
X8468595Y-12546596D01*
X8459071Y-12556120D01*
X8440024Y-12565644D01*
X8420976Y-12565644D01*
X8401929Y-12556120D01*
X8392405Y-12546596D01*
X8382881Y-12527549D01*
X8373357Y-12489454D01*
X8373357Y-12441835D01*
X8382881Y-12403739D01*
X8392405Y-12384692D01*
X8401929Y-12375168D01*
X8420976Y-12365644D01*
X8573357Y-12546596D02*
X8582881Y-12556120D01*
X8573357Y-12565644D01*
X8563833Y-12556120D01*
X8573357Y-12546596D01*
X8573357Y-12565644D01*
X8706690Y-12365644D02*
X8725738Y-12365644D01*
X8744786Y-12375168D01*
X8754310Y-12384692D01*
X8763833Y-12403739D01*
X8773357Y-12441835D01*
X8773357Y-12489454D01*
X8763833Y-12527549D01*
X8754310Y-12546596D01*
X8744786Y-12556120D01*
X8725738Y-12565644D01*
X8706690Y-12565644D01*
X8687643Y-12556120D01*
X8678119Y-12546596D01*
X8668595Y-12527549D01*
X8659071Y-12489454D01*
X8659071Y-12441835D01*
X8668595Y-12403739D01*
X8678119Y-12384692D01*
X8687643Y-12375168D01*
X8706690Y-12365644D01*
X8944786Y-12365644D02*
X8906690Y-12365644D01*
X8887643Y-12375168D01*
X8878119Y-12384692D01*
X8859071Y-12413263D01*
X8849548Y-12451358D01*
X8849548Y-12527549D01*
X8859071Y-12546596D01*
X8868595Y-12556120D01*
X8887643Y-12565644D01*
X8925738Y-12565644D01*
X8944786Y-12556120D01*
X8954310Y-12546596D01*
X8963833Y-12527549D01*
X8963833Y-12479930D01*
X8954310Y-12460882D01*
X8944786Y-12451358D01*
X8925738Y-12441835D01*
X8887643Y-12441835D01*
X8868595Y-12451358D01*
X8859071Y-12460882D01*
X8849548Y-12479930D01*
X9135262Y-12365644D02*
X9097167Y-12365644D01*
X9078119Y-12375168D01*
X9068595Y-12384692D01*
X9049548Y-12413263D01*
X9040024Y-12451358D01*
X9040024Y-12527549D01*
X9049548Y-12546596D01*
X9059071Y-12556120D01*
X9078119Y-12565644D01*
X9116214Y-12565644D01*
X9135262Y-12556120D01*
X9144786Y-12546596D01*
X9154310Y-12527549D01*
X9154310Y-12479930D01*
X9144786Y-12460882D01*
X9135262Y-12451358D01*
X9116214Y-12441835D01*
X9078119Y-12441835D01*
X9059071Y-12451358D01*
X9049548Y-12460882D01*
X9040024Y-12479930D01*
X9249548Y-12565644D02*
X9287643Y-12565644D01*
X9306690Y-12556120D01*
X9316214Y-12546596D01*
X9335262Y-12518025D01*
X9344786Y-12479930D01*
X9344786Y-12403739D01*
X9335262Y-12384692D01*
X9325738Y-12375168D01*
X9306690Y-12365644D01*
X9268595Y-12365644D01*
X9249548Y-12375168D01*
X9240024Y-12384692D01*
X9230500Y-12403739D01*
X9230500Y-12451358D01*
X9240024Y-12470406D01*
X9249548Y-12479930D01*
X9268595Y-12489454D01*
X9306690Y-12489454D01*
X9325738Y-12479930D01*
X9335262Y-12470406D01*
X9344786Y-12451358D01*
X9420976Y-12365644D02*
X9420976Y-12403739D01*
X9497167Y-12365644D02*
X9497167Y-12403739D01*
X9792405Y-12641835D02*
X9782881Y-12632311D01*
X9763833Y-12603739D01*
X9754310Y-12584692D01*
X9744786Y-12556120D01*
X9735262Y-12508501D01*
X9735262Y-12470406D01*
X9744786Y-12422787D01*
X9754310Y-12394216D01*
X9763833Y-12375168D01*
X9782881Y-12346596D01*
X9792405Y-12337073D01*
X9973357Y-12565644D02*
X9859071Y-12565644D01*
X9916214Y-12565644D02*
X9916214Y-12365644D01*
X9897167Y-12394216D01*
X9878119Y-12413263D01*
X9859071Y-12422787D01*
X10097167Y-12365644D02*
X10116214Y-12365644D01*
X10135262Y-12375168D01*
X10144786Y-12384692D01*
X10154310Y-12403739D01*
X10163833Y-12441835D01*
X10163833Y-12489454D01*
X10154310Y-12527549D01*
X10144786Y-12546596D01*
X10135262Y-12556120D01*
X10116214Y-12565644D01*
X10097167Y-12565644D01*
X10078119Y-12556120D01*
X10068595Y-12546596D01*
X10059071Y-12527549D01*
X10049548Y-12489454D01*
X10049548Y-12441835D01*
X10059071Y-12403739D01*
X10068595Y-12384692D01*
X10078119Y-12375168D01*
X10097167Y-12365644D01*
X10401929Y-12565644D02*
X10401929Y-12365644D01*
X10487643Y-12565644D02*
X10487643Y-12460882D01*
X10478119Y-12441835D01*
X10459071Y-12432311D01*
X10430500Y-12432311D01*
X10411452Y-12441835D01*
X10401929Y-12451358D01*
X10611452Y-12565644D02*
X10592405Y-12556120D01*
X10582881Y-12546596D01*
X10573357Y-12527549D01*
X10573357Y-12470406D01*
X10582881Y-12451358D01*
X10592405Y-12441835D01*
X10611452Y-12432311D01*
X10640024Y-12432311D01*
X10659071Y-12441835D01*
X10668595Y-12451358D01*
X10678119Y-12470406D01*
X10678119Y-12527549D01*
X10668595Y-12546596D01*
X10659071Y-12556120D01*
X10640024Y-12565644D01*
X10611452Y-12565644D01*
X10792405Y-12565644D02*
X10773357Y-12556120D01*
X10763833Y-12537073D01*
X10763833Y-12365644D01*
X10944786Y-12556120D02*
X10925738Y-12565644D01*
X10887643Y-12565644D01*
X10868595Y-12556120D01*
X10859071Y-12537073D01*
X10859071Y-12460882D01*
X10868595Y-12441835D01*
X10887643Y-12432311D01*
X10925738Y-12432311D01*
X10944786Y-12441835D01*
X10954310Y-12460882D01*
X10954310Y-12479930D01*
X10859071Y-12498977D01*
X11030500Y-12556120D02*
X11049548Y-12565644D01*
X11087643Y-12565644D01*
X11106690Y-12556120D01*
X11116214Y-12537073D01*
X11116214Y-12527549D01*
X11106690Y-12508501D01*
X11087643Y-12498977D01*
X11059071Y-12498977D01*
X11040024Y-12489454D01*
X11030500Y-12470406D01*
X11030500Y-12460882D01*
X11040024Y-12441835D01*
X11059071Y-12432311D01*
X11087643Y-12432311D01*
X11106690Y-12441835D01*
X11182881Y-12641835D02*
X11192405Y-12632311D01*
X11211452Y-12603739D01*
X11220976Y-12584692D01*
X11230500Y-12556120D01*
X11240024Y-12508501D01*
X11240024Y-12470406D01*
X11230500Y-12422787D01*
X11220976Y-12394216D01*
X11211452Y-12375168D01*
X11192405Y-12346596D01*
X11182881Y-12337073D01*
X11544786Y-12641835D02*
X11535262Y-12632311D01*
X11516214Y-12603739D01*
X11506690Y-12584692D01*
X11497167Y-12556120D01*
X11487643Y-12508501D01*
X11487643Y-12470406D01*
X11497167Y-12422787D01*
X11506690Y-12394216D01*
X11516214Y-12375168D01*
X11535262Y-12346596D01*
X11544786Y-12337073D01*
X11620976Y-12432311D02*
X11620976Y-12565644D01*
X11620976Y-12451358D02*
X11630500Y-12441835D01*
X11649548Y-12432311D01*
X11678119Y-12432311D01*
X11697167Y-12441835D01*
X11706690Y-12460882D01*
X11706690Y-12565644D01*
X11830500Y-12565644D02*
X11811452Y-12556120D01*
X11801928Y-12546596D01*
X11792405Y-12527549D01*
X11792405Y-12470406D01*
X11801928Y-12451358D01*
X11811452Y-12441835D01*
X11830500Y-12432311D01*
X11859071Y-12432311D01*
X11878119Y-12441835D01*
X11887643Y-12451358D01*
X11897167Y-12470406D01*
X11897167Y-12527549D01*
X11887643Y-12546596D01*
X11878119Y-12556120D01*
X11859071Y-12565644D01*
X11830500Y-12565644D01*
X11954309Y-12432311D02*
X12030500Y-12432311D01*
X11982881Y-12365644D02*
X11982881Y-12537073D01*
X11992405Y-12556120D01*
X12011452Y-12565644D01*
X12030500Y-12565644D01*
X12249548Y-12432311D02*
X12249548Y-12632311D01*
X12249548Y-12441835D02*
X12268595Y-12432311D01*
X12306690Y-12432311D01*
X12325738Y-12441835D01*
X12335262Y-12451358D01*
X12344786Y-12470406D01*
X12344786Y-12527549D01*
X12335262Y-12546596D01*
X12325738Y-12556120D01*
X12306690Y-12565644D01*
X12268595Y-12565644D01*
X12249548Y-12556120D01*
X12459071Y-12565644D02*
X12440024Y-12556120D01*
X12430500Y-12537073D01*
X12430500Y-12365644D01*
X12620976Y-12565644D02*
X12620976Y-12460882D01*
X12611452Y-12441835D01*
X12592405Y-12432311D01*
X12554309Y-12432311D01*
X12535262Y-12441835D01*
X12620976Y-12556120D02*
X12601928Y-12565644D01*
X12554309Y-12565644D01*
X12535262Y-12556120D01*
X12525738Y-12537073D01*
X12525738Y-12518025D01*
X12535262Y-12498977D01*
X12554309Y-12489454D01*
X12601928Y-12489454D01*
X12620976Y-12479930D01*
X12687643Y-12432311D02*
X12763833Y-12432311D01*
X12716214Y-12365644D02*
X12716214Y-12537073D01*
X12725738Y-12556120D01*
X12744786Y-12565644D01*
X12763833Y-12565644D01*
X12906690Y-12556120D02*
X12887643Y-12565644D01*
X12849548Y-12565644D01*
X12830500Y-12556120D01*
X12820976Y-12537073D01*
X12820976Y-12460882D01*
X12830500Y-12441835D01*
X12849548Y-12432311D01*
X12887643Y-12432311D01*
X12906690Y-12441835D01*
X12916214Y-12460882D01*
X12916214Y-12479930D01*
X12820976Y-12498977D01*
X13087643Y-12565644D02*
X13087643Y-12365644D01*
X13087643Y-12556120D02*
X13068595Y-12565644D01*
X13030500Y-12565644D01*
X13011452Y-12556120D01*
X13001928Y-12546596D01*
X12992405Y-12527549D01*
X12992405Y-12470406D01*
X13001928Y-12451358D01*
X13011452Y-12441835D01*
X13030500Y-12432311D01*
X13068595Y-12432311D01*
X13087643Y-12441835D01*
X13163833Y-12641835D02*
X13173357Y-12632311D01*
X13192405Y-12603739D01*
X13201928Y-12584692D01*
X13211452Y-12556120D01*
X13220976Y-12508501D01*
X13220976Y-12470406D01*
X13211452Y-12422787D01*
X13201928Y-12394216D01*
X13192405Y-12375168D01*
X13173357Y-12346596D01*
X13163833Y-12337073D01*
X6120500Y-12665168D02*
X6120500Y-12865168D01*
X6020500Y-12765168D02*
X6220500Y-12765168D01*
X6459071Y-12655644D02*
X6582881Y-12655644D01*
X6516214Y-12731835D01*
X6544786Y-12731835D01*
X6563833Y-12741358D01*
X6573357Y-12750882D01*
X6582881Y-12769930D01*
X6582881Y-12817549D01*
X6573357Y-12836596D01*
X6563833Y-12846120D01*
X6544786Y-12855644D01*
X6487643Y-12855644D01*
X6468595Y-12846120D01*
X6459071Y-12836596D01*
X6668595Y-12836596D02*
X6678119Y-12846120D01*
X6668595Y-12855644D01*
X6659071Y-12846120D01*
X6668595Y-12836596D01*
X6668595Y-12855644D01*
X6754309Y-12674692D02*
X6763833Y-12665168D01*
X6782881Y-12655644D01*
X6830500Y-12655644D01*
X6849548Y-12665168D01*
X6859071Y-12674692D01*
X6868595Y-12693739D01*
X6868595Y-12712787D01*
X6859071Y-12741358D01*
X6744786Y-12855644D01*
X6868595Y-12855644D01*
X6992405Y-12655644D02*
X7011452Y-12655644D01*
X7030500Y-12665168D01*
X7040024Y-12674692D01*
X7049548Y-12693739D01*
X7059071Y-12731835D01*
X7059071Y-12779454D01*
X7049548Y-12817549D01*
X7040024Y-12836596D01*
X7030500Y-12846120D01*
X7011452Y-12855644D01*
X6992405Y-12855644D01*
X6973357Y-12846120D01*
X6963833Y-12836596D01*
X6954309Y-12817549D01*
X6944786Y-12779454D01*
X6944786Y-12731835D01*
X6954309Y-12693739D01*
X6963833Y-12674692D01*
X6973357Y-12665168D01*
X6992405Y-12655644D01*
X7182881Y-12655644D02*
X7201928Y-12655644D01*
X7220976Y-12665168D01*
X7230500Y-12674692D01*
X7240024Y-12693739D01*
X7249548Y-12731835D01*
X7249548Y-12779454D01*
X7240024Y-12817549D01*
X7230500Y-12836596D01*
X7220976Y-12846120D01*
X7201928Y-12855644D01*
X7182881Y-12855644D01*
X7163833Y-12846120D01*
X7154309Y-12836596D01*
X7144786Y-12817549D01*
X7135262Y-12779454D01*
X7135262Y-12731835D01*
X7144786Y-12693739D01*
X7154309Y-12674692D01*
X7163833Y-12665168D01*
X7182881Y-12655644D01*
X7335262Y-12855644D02*
X7335262Y-12722311D01*
X7335262Y-12741358D02*
X7344786Y-12731835D01*
X7363833Y-12722311D01*
X7392405Y-12722311D01*
X7411452Y-12731835D01*
X7420976Y-12750882D01*
X7420976Y-12855644D01*
X7420976Y-12750882D02*
X7430500Y-12731835D01*
X7449548Y-12722311D01*
X7478119Y-12722311D01*
X7497167Y-12731835D01*
X7506690Y-12750882D01*
X7506690Y-12855644D01*
X7601928Y-12855644D02*
X7601928Y-12722311D01*
X7601928Y-12741358D02*
X7611452Y-12731835D01*
X7630500Y-12722311D01*
X7659071Y-12722311D01*
X7678119Y-12731835D01*
X7687643Y-12750882D01*
X7687643Y-12855644D01*
X7687643Y-12750882D02*
X7697167Y-12731835D01*
X7716214Y-12722311D01*
X7744786Y-12722311D01*
X7763833Y-12731835D01*
X7773357Y-12750882D01*
X7773357Y-12855644D01*
X8163833Y-12646120D02*
X7992405Y-12903263D01*
X8420976Y-12655644D02*
X8440024Y-12655644D01*
X8459071Y-12665168D01*
X8468595Y-12674692D01*
X8478119Y-12693739D01*
X8487643Y-12731835D01*
X8487643Y-12779454D01*
X8478119Y-12817549D01*
X8468595Y-12836596D01*
X8459071Y-12846120D01*
X8440024Y-12855644D01*
X8420976Y-12855644D01*
X8401929Y-12846120D01*
X8392405Y-12836596D01*
X8382881Y-12817549D01*
X8373357Y-12779454D01*
X8373357Y-12731835D01*
X8382881Y-12693739D01*
X8392405Y-12674692D01*
X8401929Y-12665168D01*
X8420976Y-12655644D01*
X8573357Y-12836596D02*
X8582881Y-12846120D01*
X8573357Y-12855644D01*
X8563833Y-12846120D01*
X8573357Y-12836596D01*
X8573357Y-12855644D01*
X8773357Y-12855644D02*
X8659071Y-12855644D01*
X8716214Y-12855644D02*
X8716214Y-12655644D01*
X8697167Y-12684216D01*
X8678119Y-12703263D01*
X8659071Y-12712787D01*
X8849548Y-12674692D02*
X8859071Y-12665168D01*
X8878119Y-12655644D01*
X8925738Y-12655644D01*
X8944786Y-12665168D01*
X8954310Y-12674692D01*
X8963833Y-12693739D01*
X8963833Y-12712787D01*
X8954310Y-12741358D01*
X8840024Y-12855644D01*
X8963833Y-12855644D01*
X9135262Y-12655644D02*
X9097167Y-12655644D01*
X9078119Y-12665168D01*
X9068595Y-12674692D01*
X9049548Y-12703263D01*
X9040024Y-12741358D01*
X9040024Y-12817549D01*
X9049548Y-12836596D01*
X9059071Y-12846120D01*
X9078119Y-12855644D01*
X9116214Y-12855644D01*
X9135262Y-12846120D01*
X9144786Y-12836596D01*
X9154310Y-12817549D01*
X9154310Y-12769930D01*
X9144786Y-12750882D01*
X9135262Y-12741358D01*
X9116214Y-12731835D01*
X9078119Y-12731835D01*
X9059071Y-12741358D01*
X9049548Y-12750882D01*
X9040024Y-12769930D01*
X9278119Y-12655644D02*
X9297167Y-12655644D01*
X9316214Y-12665168D01*
X9325738Y-12674692D01*
X9335262Y-12693739D01*
X9344786Y-12731835D01*
X9344786Y-12779454D01*
X9335262Y-12817549D01*
X9325738Y-12836596D01*
X9316214Y-12846120D01*
X9297167Y-12855644D01*
X9278119Y-12855644D01*
X9259071Y-12846120D01*
X9249548Y-12836596D01*
X9240024Y-12817549D01*
X9230500Y-12779454D01*
X9230500Y-12731835D01*
X9240024Y-12693739D01*
X9249548Y-12674692D01*
X9259071Y-12665168D01*
X9278119Y-12655644D01*
X9420976Y-12655644D02*
X9420976Y-12693739D01*
X9497167Y-12655644D02*
X9497167Y-12693739D01*
X9792405Y-12931835D02*
X9782881Y-12922311D01*
X9763833Y-12893739D01*
X9754310Y-12874692D01*
X9744786Y-12846120D01*
X9735262Y-12798501D01*
X9735262Y-12760406D01*
X9744786Y-12712787D01*
X9754310Y-12684216D01*
X9763833Y-12665168D01*
X9782881Y-12636596D01*
X9792405Y-12627073D01*
X9954310Y-12722311D02*
X9954310Y-12855644D01*
X9906690Y-12646120D02*
X9859071Y-12788977D01*
X9982881Y-12788977D01*
X10211452Y-12855644D02*
X10211452Y-12655644D01*
X10297167Y-12855644D02*
X10297167Y-12750882D01*
X10287643Y-12731835D01*
X10268595Y-12722311D01*
X10240024Y-12722311D01*
X10220976Y-12731835D01*
X10211452Y-12741358D01*
X10420976Y-12855644D02*
X10401929Y-12846120D01*
X10392405Y-12836596D01*
X10382881Y-12817549D01*
X10382881Y-12760406D01*
X10392405Y-12741358D01*
X10401929Y-12731835D01*
X10420976Y-12722311D01*
X10449548Y-12722311D01*
X10468595Y-12731835D01*
X10478119Y-12741358D01*
X10487643Y-12760406D01*
X10487643Y-12817549D01*
X10478119Y-12836596D01*
X10468595Y-12846120D01*
X10449548Y-12855644D01*
X10420976Y-12855644D01*
X10601929Y-12855644D02*
X10582881Y-12846120D01*
X10573357Y-12827073D01*
X10573357Y-12655644D01*
X10754310Y-12846120D02*
X10735262Y-12855644D01*
X10697167Y-12855644D01*
X10678119Y-12846120D01*
X10668595Y-12827073D01*
X10668595Y-12750882D01*
X10678119Y-12731835D01*
X10697167Y-12722311D01*
X10735262Y-12722311D01*
X10754310Y-12731835D01*
X10763833Y-12750882D01*
X10763833Y-12769930D01*
X10668595Y-12788977D01*
X10840024Y-12846120D02*
X10859071Y-12855644D01*
X10897167Y-12855644D01*
X10916214Y-12846120D01*
X10925738Y-12827073D01*
X10925738Y-12817549D01*
X10916214Y-12798501D01*
X10897167Y-12788977D01*
X10868595Y-12788977D01*
X10849548Y-12779454D01*
X10840024Y-12760406D01*
X10840024Y-12750882D01*
X10849548Y-12731835D01*
X10868595Y-12722311D01*
X10897167Y-12722311D01*
X10916214Y-12731835D01*
X10992405Y-12931835D02*
X11001929Y-12922311D01*
X11020976Y-12893739D01*
X11030500Y-12874692D01*
X11040024Y-12846120D01*
X11049548Y-12798501D01*
X11049548Y-12760406D01*
X11040024Y-12712787D01*
X11030500Y-12684216D01*
X11020976Y-12665168D01*
X11001929Y-12636596D01*
X10992405Y-12627073D01*
X11354309Y-12931835D02*
X11344786Y-12922311D01*
X11325738Y-12893739D01*
X11316214Y-12874692D01*
X11306690Y-12846120D01*
X11297167Y-12798501D01*
X11297167Y-12760406D01*
X11306690Y-12712787D01*
X11316214Y-12684216D01*
X11325738Y-12665168D01*
X11344786Y-12636596D01*
X11354309Y-12627073D01*
X11430500Y-12722311D02*
X11430500Y-12855644D01*
X11430500Y-12741358D02*
X11440024Y-12731835D01*
X11459071Y-12722311D01*
X11487643Y-12722311D01*
X11506690Y-12731835D01*
X11516214Y-12750882D01*
X11516214Y-12855644D01*
X11640024Y-12855644D02*
X11620976Y-12846120D01*
X11611452Y-12836596D01*
X11601928Y-12817549D01*
X11601928Y-12760406D01*
X11611452Y-12741358D01*
X11620976Y-12731835D01*
X11640024Y-12722311D01*
X11668595Y-12722311D01*
X11687643Y-12731835D01*
X11697167Y-12741358D01*
X11706690Y-12760406D01*
X11706690Y-12817549D01*
X11697167Y-12836596D01*
X11687643Y-12846120D01*
X11668595Y-12855644D01*
X11640024Y-12855644D01*
X11763833Y-12722311D02*
X11840024Y-12722311D01*
X11792405Y-12655644D02*
X11792405Y-12827073D01*
X11801928Y-12846120D01*
X11820976Y-12855644D01*
X11840024Y-12855644D01*
X12059071Y-12722311D02*
X12059071Y-12922311D01*
X12059071Y-12731835D02*
X12078119Y-12722311D01*
X12116214Y-12722311D01*
X12135262Y-12731835D01*
X12144786Y-12741358D01*
X12154309Y-12760406D01*
X12154309Y-12817549D01*
X12144786Y-12836596D01*
X12135262Y-12846120D01*
X12116214Y-12855644D01*
X12078119Y-12855644D01*
X12059071Y-12846120D01*
X12268595Y-12855644D02*
X12249548Y-12846120D01*
X12240024Y-12827073D01*
X12240024Y-12655644D01*
X12430500Y-12855644D02*
X12430500Y-12750882D01*
X12420976Y-12731835D01*
X12401928Y-12722311D01*
X12363833Y-12722311D01*
X12344786Y-12731835D01*
X12430500Y-12846120D02*
X12411452Y-12855644D01*
X12363833Y-12855644D01*
X12344786Y-12846120D01*
X12335262Y-12827073D01*
X12335262Y-12808025D01*
X12344786Y-12788977D01*
X12363833Y-12779454D01*
X12411452Y-12779454D01*
X12430500Y-12769930D01*
X12497167Y-12722311D02*
X12573357Y-12722311D01*
X12525738Y-12655644D02*
X12525738Y-12827073D01*
X12535262Y-12846120D01*
X12554309Y-12855644D01*
X12573357Y-12855644D01*
X12716214Y-12846120D02*
X12697167Y-12855644D01*
X12659071Y-12855644D01*
X12640024Y-12846120D01*
X12630500Y-12827073D01*
X12630500Y-12750882D01*
X12640024Y-12731835D01*
X12659071Y-12722311D01*
X12697167Y-12722311D01*
X12716214Y-12731835D01*
X12725738Y-12750882D01*
X12725738Y-12769930D01*
X12630500Y-12788977D01*
X12897167Y-12855644D02*
X12897167Y-12655644D01*
X12897167Y-12846120D02*
X12878119Y-12855644D01*
X12840024Y-12855644D01*
X12820976Y-12846120D01*
X12811452Y-12836596D01*
X12801928Y-12817549D01*
X12801928Y-12760406D01*
X12811452Y-12741358D01*
X12820976Y-12731835D01*
X12840024Y-12722311D01*
X12878119Y-12722311D01*
X12897167Y-12731835D01*
X12973357Y-12931835D02*
X12982881Y-12922311D01*
X13001928Y-12893739D01*
X13011452Y-12874692D01*
X13020976Y-12846120D01*
X13030500Y-12798501D01*
X13030500Y-12760406D01*
X13020976Y-12712787D01*
X13011452Y-12684216D01*
X13001928Y-12665168D01*
X12982881Y-12636596D01*
X12973357Y-12627073D01*
M02*
