G04 #@! TF.GenerationSoftware,KiCad,Pcbnew,(6.0.11)*
G04 #@! TF.CreationDate,2023-05-24T19:33:27+02:00*
G04 #@! TF.ProjectId,an2can,616e3263-616e-42e6-9b69-6361645f7063,V0*
G04 #@! TF.SameCoordinates,Original*
G04 #@! TF.FileFunction,Paste,Bot*
G04 #@! TF.FilePolarity,Positive*
%FSLAX46Y46*%
G04 Gerber Fmt 4.6, Leading zero omitted, Abs format (unit mm)*
G04 Created by KiCad (PCBNEW (6.0.11)) date 2023-05-24 19:33:27*
%MOMM*%
%LPD*%
G01*
G04 APERTURE LIST*
G04 Aperture macros list*
%AMRoundRect*
0 Rectangle with rounded corners*
0 $1 Rounding radius*
0 $2 $3 $4 $5 $6 $7 $8 $9 X,Y pos of 4 corners*
0 Add a 4 corners polygon primitive as box body*
4,1,4,$2,$3,$4,$5,$6,$7,$8,$9,$2,$3,0*
0 Add four circle primitives for the rounded corners*
1,1,$1+$1,$2,$3*
1,1,$1+$1,$4,$5*
1,1,$1+$1,$6,$7*
1,1,$1+$1,$8,$9*
0 Add four rect primitives between the rounded corners*
20,1,$1+$1,$2,$3,$4,$5,0*
20,1,$1+$1,$4,$5,$6,$7,0*
20,1,$1+$1,$6,$7,$8,$9,0*
20,1,$1+$1,$8,$9,$2,$3,0*%
G04 Aperture macros list end*
%ADD10RoundRect,0.200000X-0.200000X-0.275000X0.200000X-0.275000X0.200000X0.275000X-0.200000X0.275000X0*%
%ADD11RoundRect,0.200000X-0.275000X0.200000X-0.275000X-0.200000X0.275000X-0.200000X0.275000X0.200000X0*%
%ADD12RoundRect,0.232500X-0.232500X0.232500X-0.232500X-0.232500X0.232500X-0.232500X0.232500X0.232500X0*%
%ADD13RoundRect,0.062500X-0.062500X0.588500X-0.062500X-0.588500X0.062500X-0.588500X0.062500X0.588500X0*%
%ADD14RoundRect,0.062500X-0.588500X0.062500X-0.588500X-0.062500X0.588500X-0.062500X0.588500X0.062500X0*%
%ADD15R,1.200000X0.900000*%
%ADD16RoundRect,0.200000X0.200000X0.275000X-0.200000X0.275000X-0.200000X-0.275000X0.200000X-0.275000X0*%
%ADD17RoundRect,0.225000X-0.250000X0.225000X-0.250000X-0.225000X0.250000X-0.225000X0.250000X0.225000X0*%
%ADD18R,1.200000X1.400000*%
%ADD19R,0.500000X0.800000*%
%ADD20R,0.400000X0.800000*%
%ADD21RoundRect,0.225000X-0.017678X0.335876X-0.335876X0.017678X0.017678X-0.335876X0.335876X-0.017678X0*%
%ADD22RoundRect,0.250000X0.262500X0.450000X-0.262500X0.450000X-0.262500X-0.450000X0.262500X-0.450000X0*%
%ADD23RoundRect,0.200000X0.275000X-0.200000X0.275000X0.200000X-0.275000X0.200000X-0.275000X-0.200000X0*%
%ADD24RoundRect,0.225000X0.017678X-0.335876X0.335876X-0.017678X-0.017678X0.335876X-0.335876X0.017678X0*%
%ADD25RoundRect,0.150000X-0.150000X0.825000X-0.150000X-0.825000X0.150000X-0.825000X0.150000X0.825000X0*%
%ADD26RoundRect,0.250000X-0.450000X0.262500X-0.450000X-0.262500X0.450000X-0.262500X0.450000X0.262500X0*%
%ADD27RoundRect,0.250000X-0.159099X0.512652X-0.512652X0.159099X0.159099X-0.512652X0.512652X-0.159099X0*%
%ADD28R,1.450000X0.600000*%
%ADD29R,1.450000X0.300000*%
%ADD30RoundRect,0.225000X0.250000X-0.225000X0.250000X0.225000X-0.250000X0.225000X-0.250000X-0.225000X0*%
%ADD31RoundRect,0.225000X0.225000X0.250000X-0.225000X0.250000X-0.225000X-0.250000X0.225000X-0.250000X0*%
%ADD32RoundRect,0.150000X-0.587500X-0.150000X0.587500X-0.150000X0.587500X0.150000X-0.587500X0.150000X0*%
%ADD33RoundRect,0.250000X-0.250000X-0.475000X0.250000X-0.475000X0.250000X0.475000X-0.250000X0.475000X0*%
%ADD34R,0.800000X0.500000*%
%ADD35R,0.800000X0.400000*%
%ADD36RoundRect,0.218750X0.256250X-0.218750X0.256250X0.218750X-0.256250X0.218750X-0.256250X-0.218750X0*%
%ADD37RoundRect,0.250000X0.450000X-0.262500X0.450000X0.262500X-0.450000X0.262500X-0.450000X-0.262500X0*%
G04 APERTURE END LIST*
D10*
X120714000Y-73660000D03*
X122364000Y-73660000D03*
D11*
X108204000Y-72581000D03*
X108204000Y-74231000D03*
D10*
X120714000Y-106426000D03*
X122364000Y-106426000D03*
D12*
X93218000Y-89274000D03*
X95518000Y-89274000D03*
X95518000Y-91574000D03*
X93218000Y-90424000D03*
X94368000Y-89274000D03*
X93218000Y-91574000D03*
X95518000Y-90424000D03*
X94368000Y-91574000D03*
X94368000Y-90424000D03*
D13*
X92618000Y-87773000D03*
X93118000Y-87773000D03*
X93618000Y-87773000D03*
X94118000Y-87773000D03*
X94618000Y-87773000D03*
X95118000Y-87773000D03*
X95618000Y-87773000D03*
X96118000Y-87773000D03*
D14*
X97019000Y-88674000D03*
X97019000Y-89174000D03*
X97019000Y-89674000D03*
X97019000Y-90174000D03*
X97019000Y-90674000D03*
X97019000Y-91174000D03*
X97019000Y-91674000D03*
X97019000Y-92174000D03*
D13*
X96118000Y-93075000D03*
X95618000Y-93075000D03*
X95118000Y-93075000D03*
X94618000Y-93075000D03*
X94118000Y-93075000D03*
X93618000Y-93075000D03*
X93118000Y-93075000D03*
X92618000Y-93075000D03*
D14*
X91717000Y-92174000D03*
X91717000Y-91674000D03*
X91717000Y-91174000D03*
X91717000Y-90674000D03*
X91717000Y-90174000D03*
X91717000Y-89674000D03*
X91717000Y-89174000D03*
X91717000Y-88674000D03*
D15*
X106299000Y-94741000D03*
X106299000Y-91441000D03*
D11*
X109728000Y-86805000D03*
X109728000Y-88455000D03*
D16*
X122364000Y-94996000D03*
X120714000Y-94996000D03*
D17*
X76327000Y-104635000D03*
X76327000Y-106185000D03*
D18*
X96862000Y-82847000D03*
X96862000Y-85047000D03*
X95162000Y-85047000D03*
X95162000Y-82847000D03*
D19*
X95688000Y-97928000D03*
D20*
X94888000Y-97928000D03*
X94088000Y-97928000D03*
D19*
X93288000Y-97928000D03*
X93288000Y-96128000D03*
D20*
X94088000Y-96128000D03*
X94888000Y-96128000D03*
D19*
X95688000Y-96128000D03*
D15*
X106299000Y-104647000D03*
X106299000Y-101347000D03*
D21*
X91734008Y-86446992D03*
X90637992Y-87543008D03*
D16*
X122364000Y-85090000D03*
X120714000Y-85090000D03*
D11*
X109728000Y-96711000D03*
X109728000Y-98361000D03*
D16*
X122364000Y-104902000D03*
X120714000Y-104902000D03*
D22*
X80795500Y-107201000D03*
X78970500Y-107201000D03*
D10*
X120714000Y-98044000D03*
X122364000Y-98044000D03*
D11*
X108204000Y-92393000D03*
X108204000Y-94043000D03*
D16*
X122364000Y-79756000D03*
X120714000Y-79756000D03*
D23*
X109728000Y-103949000D03*
X109728000Y-102299000D03*
D11*
X111252000Y-92393000D03*
X111252000Y-94043000D03*
D16*
X122364000Y-109474000D03*
X120714000Y-109474000D03*
D11*
X111252000Y-72581000D03*
X111252000Y-74231000D03*
D16*
X122364000Y-75184000D03*
X120714000Y-75184000D03*
D24*
X97114992Y-94274008D03*
X98211008Y-93177992D03*
D25*
X77978000Y-100027000D03*
X79248000Y-100027000D03*
X80518000Y-100027000D03*
X81788000Y-100027000D03*
X81788000Y-104977000D03*
X80518000Y-104977000D03*
X79248000Y-104977000D03*
X77978000Y-104977000D03*
D16*
X122364000Y-99568000D03*
X120714000Y-99568000D03*
X122364000Y-101854000D03*
X120714000Y-101854000D03*
D10*
X112810404Y-98432040D03*
X114460404Y-98432040D03*
D23*
X111252000Y-78549000D03*
X111252000Y-76899000D03*
D11*
X109728000Y-106617000D03*
X109728000Y-108267000D03*
X108204000Y-106617000D03*
X108204000Y-108267000D03*
D26*
X72771000Y-103862500D03*
X72771000Y-105687500D03*
D11*
X111252000Y-102299000D03*
X111252000Y-103949000D03*
D23*
X109728000Y-84137000D03*
X109728000Y-82487000D03*
D10*
X72835000Y-77216000D03*
X74485000Y-77216000D03*
X120714000Y-103378000D03*
X122364000Y-103378000D03*
X120714000Y-93472000D03*
X122364000Y-93472000D03*
X112810404Y-78620040D03*
X114460404Y-78620040D03*
D27*
X90587751Y-85053249D03*
X89244249Y-86396751D03*
D11*
X111252000Y-82487000D03*
X111252000Y-84137000D03*
D28*
X70541000Y-104723000D03*
X70541000Y-103923000D03*
D29*
X70541000Y-102723000D03*
X70541000Y-101723000D03*
X70541000Y-101223000D03*
X70541000Y-100223000D03*
D28*
X70541000Y-99023000D03*
X70541000Y-98223000D03*
X70541000Y-98223000D03*
X70541000Y-99023000D03*
D29*
X70541000Y-99723000D03*
X70541000Y-100723000D03*
X70541000Y-102223000D03*
X70541000Y-103223000D03*
D28*
X70541000Y-103923000D03*
X70541000Y-104723000D03*
D16*
X122364000Y-82042000D03*
X120714000Y-82042000D03*
X122364000Y-89662000D03*
X120714000Y-89662000D03*
D17*
X98552000Y-83172000D03*
X98552000Y-84722000D03*
D15*
X106299000Y-84835000D03*
X106299000Y-81535000D03*
D10*
X120714000Y-86614000D03*
X122364000Y-86614000D03*
D23*
X109728000Y-94043000D03*
X109728000Y-92393000D03*
D10*
X120714000Y-76708000D03*
X122364000Y-76708000D03*
D11*
X108204000Y-102299000D03*
X108204000Y-103949000D03*
X109728000Y-76899000D03*
X109728000Y-78549000D03*
D10*
X120714000Y-96520000D03*
X122364000Y-96520000D03*
D15*
X106299000Y-106046000D03*
X106299000Y-109346000D03*
D11*
X108204000Y-96711000D03*
X108204000Y-98361000D03*
D23*
X111252000Y-98361000D03*
X111252000Y-96711000D03*
D11*
X108204000Y-82487000D03*
X108204000Y-84137000D03*
X108204000Y-86805000D03*
X108204000Y-88455000D03*
D30*
X106299000Y-70117000D03*
X106299000Y-68567000D03*
D11*
X98679000Y-96203000D03*
X98679000Y-97853000D03*
D23*
X111252000Y-108267000D03*
X111252000Y-106617000D03*
X104775000Y-70167000D03*
X104775000Y-68517000D03*
D31*
X80658000Y-97930000D03*
X79108000Y-97930000D03*
D32*
X94439500Y-110932000D03*
X94439500Y-109032000D03*
X96314500Y-109982000D03*
D15*
X106299000Y-96140000D03*
X106299000Y-99440000D03*
D33*
X69027000Y-95123000D03*
X70927000Y-95123000D03*
D15*
X106299000Y-76328000D03*
X106299000Y-79628000D03*
D23*
X111252000Y-88455000D03*
X111252000Y-86805000D03*
D11*
X107823000Y-68517000D03*
X107823000Y-70167000D03*
D10*
X112810404Y-108338040D03*
X114460404Y-108338040D03*
X120714000Y-83566000D03*
X122364000Y-83566000D03*
D33*
X69027000Y-93091000D03*
X70927000Y-93091000D03*
D11*
X97155000Y-96203000D03*
X97155000Y-97853000D03*
D15*
X106299000Y-86234000D03*
X106299000Y-89534000D03*
D10*
X120714000Y-107950000D03*
X122364000Y-107950000D03*
D34*
X81291000Y-83128000D03*
D35*
X81291000Y-83928000D03*
X81291000Y-84728000D03*
D34*
X81291000Y-85528000D03*
X79491000Y-85528000D03*
D35*
X79491000Y-84728000D03*
X79491000Y-83928000D03*
D34*
X79491000Y-83128000D03*
D15*
X106299000Y-74929000D03*
X106299000Y-71629000D03*
D23*
X109728000Y-74231000D03*
X109728000Y-72581000D03*
D16*
X122364000Y-91948000D03*
X120714000Y-91948000D03*
D11*
X108204000Y-76899000D03*
X108204000Y-78549000D03*
D10*
X120714000Y-78232000D03*
X122364000Y-78232000D03*
D36*
X67437000Y-95021500D03*
X67437000Y-93446500D03*
D10*
X120714000Y-88138000D03*
X122364000Y-88138000D03*
D16*
X122364000Y-72136000D03*
X120714000Y-72136000D03*
D37*
X72771000Y-99210500D03*
X72771000Y-97385500D03*
D10*
X112810404Y-88526040D03*
X114460404Y-88526040D03*
M02*
