G04 #@! TF.GenerationSoftware,KiCad,Pcbnew,(6.0.11)*
G04 #@! TF.CreationDate,2023-05-24T19:33:27+02:00*
G04 #@! TF.ProjectId,an2can,616e3263-616e-42e6-9b69-6361645f7063,V0*
G04 #@! TF.SameCoordinates,Original*
G04 #@! TF.FileFunction,Paste,Top*
G04 #@! TF.FilePolarity,Positive*
%FSLAX46Y46*%
G04 Gerber Fmt 4.6, Leading zero omitted, Abs format (unit mm)*
G04 Created by KiCad (PCBNEW (6.0.11)) date 2023-05-24 19:33:27*
%MOMM*%
%LPD*%
G01*
G04 APERTURE LIST*
G04 Aperture macros list*
%AMRoundRect*
0 Rectangle with rounded corners*
0 $1 Rounding radius*
0 $2 $3 $4 $5 $6 $7 $8 $9 X,Y pos of 4 corners*
0 Add a 4 corners polygon primitive as box body*
4,1,4,$2,$3,$4,$5,$6,$7,$8,$9,$2,$3,0*
0 Add four circle primitives for the rounded corners*
1,1,$1+$1,$2,$3*
1,1,$1+$1,$4,$5*
1,1,$1+$1,$6,$7*
1,1,$1+$1,$8,$9*
0 Add four rect primitives between the rounded corners*
20,1,$1+$1,$2,$3,$4,$5,0*
20,1,$1+$1,$4,$5,$6,$7,0*
20,1,$1+$1,$6,$7,$8,$9,0*
20,1,$1+$1,$8,$9,$2,$3,0*%
G04 Aperture macros list end*
%ADD10RoundRect,0.250000X-0.475000X0.250000X-0.475000X-0.250000X0.475000X-0.250000X0.475000X0.250000X0*%
%ADD11RoundRect,0.200000X-0.275000X0.200000X-0.275000X-0.200000X0.275000X-0.200000X0.275000X0.200000X0*%
%ADD12R,2.180000X1.600000*%
%ADD13RoundRect,0.100000X0.100000X-0.712500X0.100000X0.712500X-0.100000X0.712500X-0.100000X-0.712500X0*%
%ADD14RoundRect,0.225000X0.225000X0.250000X-0.225000X0.250000X-0.225000X-0.250000X0.225000X-0.250000X0*%
%ADD15RoundRect,0.250000X0.475000X-0.250000X0.475000X0.250000X-0.475000X0.250000X-0.475000X-0.250000X0*%
%ADD16RoundRect,0.225000X-0.250000X0.225000X-0.250000X-0.225000X0.250000X-0.225000X0.250000X0.225000X0*%
%ADD17RoundRect,0.200000X0.275000X-0.200000X0.275000X0.200000X-0.275000X0.200000X-0.275000X-0.200000X0*%
%ADD18RoundRect,0.218750X-0.218750X-0.256250X0.218750X-0.256250X0.218750X0.256250X-0.218750X0.256250X0*%
%ADD19R,2.790000X0.740000*%
%ADD20RoundRect,0.100000X0.100000X-0.637500X0.100000X0.637500X-0.100000X0.637500X-0.100000X-0.637500X0*%
%ADD21RoundRect,0.218750X0.256250X-0.218750X0.256250X0.218750X-0.256250X0.218750X-0.256250X-0.218750X0*%
%ADD22RoundRect,0.250000X-0.250000X-0.475000X0.250000X-0.475000X0.250000X0.475000X-0.250000X0.475000X0*%
%ADD23RoundRect,0.150000X0.150000X-0.587500X0.150000X0.587500X-0.150000X0.587500X-0.150000X-0.587500X0*%
%ADD24RoundRect,0.225000X0.250000X-0.225000X0.250000X0.225000X-0.250000X0.225000X-0.250000X-0.225000X0*%
G04 APERTURE END LIST*
D10*
X106426000Y-96586000D03*
X106426000Y-98486000D03*
D11*
X108204000Y-106617000D03*
X108204000Y-108267000D03*
D12*
X97681000Y-82296000D03*
X88501000Y-82296000D03*
D13*
X112436000Y-78292500D03*
X113086000Y-78292500D03*
X113736000Y-78292500D03*
X114386000Y-78292500D03*
X114386000Y-74067500D03*
X113736000Y-74067500D03*
X113086000Y-74067500D03*
X112436000Y-74067500D03*
D14*
X114440000Y-101981000D03*
X112890000Y-101981000D03*
D11*
X108204000Y-96711000D03*
X108204000Y-98361000D03*
D15*
X106426000Y-74356000D03*
X106426000Y-72456000D03*
X98552000Y-91247000D03*
X98552000Y-89347000D03*
D14*
X114440000Y-92075000D03*
X112890000Y-92075000D03*
D10*
X106426000Y-76774000D03*
X106426000Y-78674000D03*
D16*
X108966000Y-112255000D03*
X108966000Y-113805000D03*
D11*
X108204000Y-76899000D03*
X108204000Y-78549000D03*
D10*
X100584000Y-87442000D03*
X100584000Y-89342000D03*
D17*
X108204000Y-103949000D03*
X108204000Y-102299000D03*
D15*
X106426000Y-94168000D03*
X106426000Y-92268000D03*
D18*
X93700500Y-91186000D03*
X95275500Y-91186000D03*
D19*
X94356500Y-103378000D03*
X90286500Y-103378000D03*
X94356500Y-102108000D03*
X90286500Y-102108000D03*
X94356500Y-100838000D03*
X90286500Y-100838000D03*
X94356500Y-99568000D03*
X90286500Y-99568000D03*
X94356500Y-98298000D03*
X90286500Y-98298000D03*
X94356500Y-97028000D03*
X90286500Y-97028000D03*
X94356500Y-95758000D03*
X90286500Y-95758000D03*
D20*
X109769000Y-108125500D03*
X110419000Y-108125500D03*
X111069000Y-108125500D03*
X111719000Y-108125500D03*
X111719000Y-102400500D03*
X111069000Y-102400500D03*
X110419000Y-102400500D03*
X109769000Y-102400500D03*
D13*
X112436000Y-98104500D03*
X113086000Y-98104500D03*
X113736000Y-98104500D03*
X114386000Y-98104500D03*
X114386000Y-93879500D03*
X113736000Y-93879500D03*
X113086000Y-93879500D03*
X112436000Y-93879500D03*
D14*
X114440000Y-72263000D03*
X112890000Y-72263000D03*
D15*
X91948000Y-91120000D03*
X91948000Y-89220000D03*
D11*
X97536000Y-96076000D03*
X97536000Y-97726000D03*
D21*
X97536000Y-100736500D03*
X97536000Y-99161500D03*
D20*
X109769000Y-88313500D03*
X110419000Y-88313500D03*
X111069000Y-88313500D03*
X111719000Y-88313500D03*
X111719000Y-82588500D03*
X111069000Y-82588500D03*
X110419000Y-82588500D03*
X109769000Y-82588500D03*
X109769000Y-98219500D03*
X110419000Y-98219500D03*
X111069000Y-98219500D03*
X111719000Y-98219500D03*
X111719000Y-92494500D03*
X111069000Y-92494500D03*
X110419000Y-92494500D03*
X109769000Y-92494500D03*
D14*
X114440000Y-82169000D03*
X112890000Y-82169000D03*
D17*
X108204000Y-74231000D03*
X108204000Y-72581000D03*
D22*
X96078000Y-85598000D03*
X97978000Y-85598000D03*
D18*
X96113500Y-87376000D03*
X97688500Y-87376000D03*
D23*
X105476000Y-113713500D03*
X107376000Y-113713500D03*
X106426000Y-111838500D03*
D24*
X96774000Y-91199000D03*
X96774000Y-89649000D03*
D17*
X108204000Y-94043000D03*
X108204000Y-92393000D03*
D10*
X106426000Y-106492000D03*
X106426000Y-108392000D03*
D15*
X106426000Y-104074000D03*
X106426000Y-102174000D03*
D10*
X106426000Y-86680000D03*
X106426000Y-88580000D03*
D13*
X112436000Y-108010500D03*
X113086000Y-108010500D03*
X113736000Y-108010500D03*
X114386000Y-108010500D03*
X114386000Y-103785500D03*
X113736000Y-103785500D03*
X113086000Y-103785500D03*
X112436000Y-103785500D03*
D20*
X109769000Y-78407500D03*
X110419000Y-78407500D03*
X111069000Y-78407500D03*
X111719000Y-78407500D03*
X111719000Y-72682500D03*
X111069000Y-72682500D03*
X110419000Y-72682500D03*
X109769000Y-72682500D03*
D11*
X108204000Y-86805000D03*
X108204000Y-88455000D03*
D17*
X108204000Y-84137000D03*
X108204000Y-82487000D03*
D16*
X102362000Y-87617000D03*
X102362000Y-89167000D03*
X87884000Y-85077000D03*
X87884000Y-86627000D03*
D15*
X106426000Y-84262000D03*
X106426000Y-82362000D03*
D13*
X112436000Y-88198500D03*
X113086000Y-88198500D03*
X113736000Y-88198500D03*
X114386000Y-88198500D03*
X114386000Y-83973500D03*
X113736000Y-83973500D03*
X113086000Y-83973500D03*
X112436000Y-83973500D03*
M02*
