M48
; DRILL file {KiCad (6.0.11)} date Wed May 24 19:33:45 2023
; FORMAT={-:-/ absolute / metric / decimal}
; #@! TF.CreationDate,2023-05-24T19:33:45+02:00
; #@! TF.GenerationSoftware,Kicad,Pcbnew,(6.0.11)
; #@! TF.FileFunction,Plated,1,2,PTH
FMAT,2
METRIC
; #@! TA.AperFunction,Plated,PTH,ViaDrill
T1C0.200
; #@! TA.AperFunction,Plated,PTH,ViaDrill
T2C0.400
; #@! TA.AperFunction,Plated,PTH,ComponentDrill
T3C0.600
; #@! TA.AperFunction,Plated,PTH,ComponentDrill
T4C1.000
; #@! TA.AperFunction,Plated,PTH,ComponentDrill
T5C1.200
%
G90
G05
T1
X72.868Y-80.518
X72.868Y-83.058
X72.868Y-88.138
X72.995Y-85.598
X75.027Y-80.518
X75.027Y-83.058
X75.027Y-85.598
X75.027Y-88.138
X77.216Y-100.076
X81.788Y-101.6
X83.693Y-100.076
X83.693Y-101.6
X84.582Y-83.82
X85.09Y-105.283
X85.598Y-106.426
X85.725Y-83.439
X86.233Y-104.267
X88.138Y-90.099
X88.773Y-89.599
X91.313Y-92.964
X92.075Y-100.838
X92.202Y-102.108
X93.091Y-89.154
X93.091Y-90.043
X93.853Y-89.154
X93.853Y-90.043
X94.543Y-86.357
X95.123Y-89.154
X97.028Y-95.353
X106.045Y-73.406
X107.452Y-76.902
X107.452Y-86.808
X107.452Y-96.714
X107.452Y-106.62
X108.204Y-73.43
X108.204Y-79.398
X108.204Y-83.337
X108.204Y-89.304
X108.204Y-93.242
X108.204Y-99.21
X108.204Y-103.148
X108.204Y-109.117
X110.419Y-75.367
X110.419Y-85.273
X110.419Y-95.179
X110.419Y-105.085
X110.43Y-79.599
X110.43Y-89.505
X110.43Y-99.411
X110.43Y-109.317
X110.78Y-71.561
X110.78Y-81.467
X110.78Y-91.373
X110.78Y-101.279
X112.014Y-75.304
X112.014Y-85.21
X112.014Y-95.117
X112.014Y-105.022
X112.268Y-76.454
X112.268Y-86.36
X112.268Y-96.266
X112.268Y-106.172
X112.777Y-77.086
X112.777Y-86.992
X112.777Y-96.898
X112.777Y-106.804
X113.665Y-82.809
X113.665Y-92.715
X113.665Y-102.621
X113.667Y-72.906
X113.792Y-77.028
X113.792Y-86.934
X113.792Y-96.84
X113.792Y-106.746
X114.78Y-76.689
X114.78Y-86.595
X114.78Y-96.501
X114.78Y-106.407
X122.364Y-78.995
X122.364Y-88.901
X122.364Y-98.807
X122.364Y-108.713
X123.063Y-75.184
X123.063Y-85.09
X123.063Y-94.996
X123.063Y-104.902
T2
X63.754Y-111.379
X65.659Y-69.088
X65.786Y-101.346
X66.802Y-77.089
X68.58Y-82.804
X68.58Y-88.265
X68.834Y-112.649
X70.358Y-71.882
X71.628Y-90.718
X73.914Y-95.504
X75.057Y-91.567
X76.835Y-69.723
X76.962Y-74.041
X77.139Y-105.463
X77.47Y-103.378
X77.597Y-97.917
X78.105Y-113.665
X79.248Y-101.473
X80.645Y-90.551
X81.915Y-95.504
X85.979Y-67.818
X85.979Y-72.39
X87.376Y-99.568
X88.011Y-87.63
X89.154Y-84.328
X90.576Y-86.495
X92.964Y-82.296
X93.98Y-82.804
X96.897Y-93.095
X97.155Y-103.378
X98.044Y-106.553
X98.044Y-109.093
X98.044Y-111.633
X98.044Y-114.173
X98.171Y-67.945
X98.171Y-70.485
X98.171Y-73.025
X98.679Y-94.234
X98.82Y-95.223
X98.933Y-85.852
X100.457Y-67.945
X100.457Y-70.485
X100.457Y-73.025
X100.457Y-75.565
X100.457Y-78.105
X100.457Y-80.645
X100.457Y-83.185
X100.457Y-93.853
X100.457Y-96.393
X100.457Y-98.933
X100.457Y-101.473
X100.457Y-104.013
X100.457Y-106.553
X100.457Y-109.093
X100.457Y-111.633
X100.457Y-114.173
X102.616Y-100.838
X103.759Y-76.749
X103.759Y-89.789
X103.886Y-92.456
X104.711Y-71.09
X105.029Y-74.971
X105.029Y-84.863
X105.029Y-94.756
X105.029Y-104.648
X108.204Y-71.374
X108.204Y-80.899
X108.204Y-90.805
X108.204Y-100.711
X108.585Y-110.49
X111.76Y-69.977
X115.062Y-110.325
X116.586Y-80.899
X116.586Y-90.805
X116.586Y-100.711
X116.586Y-111.506
X119.126Y-80.899
X119.126Y-90.805
X119.126Y-100.711
X121.539Y-113.411
X122.555Y-67.437
X124.333Y-80.899
X124.333Y-90.805
X124.333Y-100.711
X128.397Y-80.899
X128.397Y-90.805
X128.397Y-100.711
T4
X64.77Y-79.375
X64.77Y-81.915
X64.77Y-84.455
X64.77Y-86.995
X64.77Y-89.535
X64.77Y-92.075
X64.77Y-94.615
X86.959Y-109.987
X86.959Y-112.527
X89.652Y-74.803
X89.652Y-77.343
X92.192Y-74.803
X92.192Y-77.343
X94.732Y-74.803
X94.732Y-77.343
X97.272Y-74.803
X97.272Y-77.343
T5
X73.111Y-110.002
X73.111Y-112.502
X75.611Y-110.002
X75.611Y-112.502
X116.586Y-74.696
X116.586Y-77.196
X116.586Y-84.602
X116.586Y-87.102
X116.586Y-94.508
X116.586Y-97.008
X116.586Y-104.287
X116.586Y-106.787
X119.086Y-74.696
X119.086Y-77.196
X119.086Y-84.602
X119.086Y-87.102
X119.086Y-94.508
X119.086Y-97.008
X119.086Y-104.287
X119.086Y-106.787
T3
X65.146Y-97.153G85X65.746Y-97.153
G05
X65.146Y-105.793G85X65.746Y-105.793
G05
X69.076Y-97.153G85X70.176Y-97.153
G05
X69.076Y-105.793G85X70.176Y-105.793
G05
T0
M30
