%TF.GenerationSoftware,KiCad,Pcbnew,(6.0.11)*%
%TF.CreationDate,2023-05-24T19:33:46+02:00*%
%TF.ProjectId,an2can,616e3263-616e-42e6-9b69-6361645f7063,V0*%
%TF.SameCoordinates,Original*%
%TF.FileFunction,Drillmap*%
%TF.FilePolarity,Positive*%
%FSLAX45Y45*%
G04 Gerber Fmt 4.5, Leading zero omitted, Abs format (unit mm)*
G04 Created by KiCad (PCBNEW (6.0.11)) date 2023-05-24 19:33:46*
%MOMM*%
%LPD*%
G01*
G04 APERTURE LIST*
%ADD10C,0.050000*%
%ADD11C,0.200000*%
%ADD12C,0.020000*%
%ADD13C,0.040000*%
%ADD14C,0.060000*%
%ADD15C,0.100000*%
%ADD16C,0.120000*%
G04 APERTURE END LIST*
D10*
X12992100Y-6891300D02*
G75*
G03*
X12692100Y-6591300I-300000J0D01*
G01*
X6527600Y-6591300D02*
X12692100Y-6591300D01*
X6527600Y-6591296D02*
G75*
G03*
X6223000Y-6883400I-12240J-292104D01*
G01*
X6223000Y-6883400D02*
X6223000Y-11268668D01*
X12992100Y-11267700D02*
X12992100Y-6891300D01*
X6223002Y-11268668D02*
G75*
G03*
X6523000Y-11568668I299998J-2D01*
G01*
X12692100Y-11567700D02*
G75*
G03*
X12992100Y-11267700I0J300000D01*
G01*
X12692100Y-11567700D02*
X6523000Y-11568668D01*
D11*
D12*
X7276800Y-8041800D02*
X7296800Y-8061800D01*
X7296800Y-8041800D02*
X7276800Y-8061800D01*
X7276800Y-8295800D02*
X7296800Y-8315800D01*
X7296800Y-8295800D02*
X7276800Y-8315800D01*
X7276800Y-8803800D02*
X7296800Y-8823800D01*
X7296800Y-8803800D02*
X7276800Y-8823800D01*
X7289500Y-8549800D02*
X7309500Y-8569800D01*
X7309500Y-8549800D02*
X7289500Y-8569800D01*
X7492700Y-8041800D02*
X7512700Y-8061800D01*
X7512700Y-8041800D02*
X7492700Y-8061800D01*
X7492700Y-8295800D02*
X7512700Y-8315800D01*
X7512700Y-8295800D02*
X7492700Y-8315800D01*
X7492700Y-8549800D02*
X7512700Y-8569800D01*
X7512700Y-8549800D02*
X7492700Y-8569800D01*
X7492700Y-8803800D02*
X7512700Y-8823800D01*
X7512700Y-8803800D02*
X7492700Y-8823800D01*
X7711600Y-9997600D02*
X7731600Y-10017600D01*
X7731600Y-9997600D02*
X7711600Y-10017600D01*
X8168800Y-10150000D02*
X8188800Y-10170000D01*
X8188800Y-10150000D02*
X8168800Y-10170000D01*
X8359300Y-9997600D02*
X8379300Y-10017600D01*
X8379300Y-9997600D02*
X8359300Y-10017600D01*
X8359300Y-10150000D02*
X8379300Y-10170000D01*
X8379300Y-10150000D02*
X8359300Y-10170000D01*
X8448200Y-8372000D02*
X8468200Y-8392000D01*
X8468200Y-8372000D02*
X8448200Y-8392000D01*
X8499000Y-10518300D02*
X8519000Y-10538300D01*
X8519000Y-10518300D02*
X8499000Y-10538300D01*
X8549800Y-10632600D02*
X8569800Y-10652600D01*
X8569800Y-10632600D02*
X8549800Y-10652600D01*
X8562500Y-8333900D02*
X8582500Y-8353900D01*
X8582500Y-8333900D02*
X8562500Y-8353900D01*
X8613300Y-10416700D02*
X8633300Y-10436700D01*
X8633300Y-10416700D02*
X8613300Y-10436700D01*
X8803800Y-8999950D02*
X8823800Y-9019950D01*
X8823800Y-8999950D02*
X8803800Y-9019950D01*
X8867300Y-8949950D02*
X8887300Y-8969950D01*
X8887300Y-8949950D02*
X8867300Y-8969950D01*
X9121300Y-9286400D02*
X9141300Y-9306400D01*
X9141300Y-9286400D02*
X9121300Y-9306400D01*
X9197500Y-10073800D02*
X9217500Y-10093800D01*
X9217500Y-10073800D02*
X9197500Y-10093800D01*
X9210200Y-10200800D02*
X9230200Y-10220800D01*
X9230200Y-10200800D02*
X9210200Y-10220800D01*
X9299100Y-8905400D02*
X9319100Y-8925400D01*
X9319100Y-8905400D02*
X9299100Y-8925400D01*
X9299100Y-8994300D02*
X9319100Y-9014300D01*
X9319100Y-8994300D02*
X9299100Y-9014300D01*
X9375300Y-8905400D02*
X9395300Y-8925400D01*
X9395300Y-8905400D02*
X9375300Y-8925400D01*
X9375300Y-8994300D02*
X9395300Y-9014300D01*
X9395300Y-8994300D02*
X9375300Y-9014300D01*
X9444350Y-8625700D02*
X9464350Y-8645700D01*
X9464350Y-8625700D02*
X9444350Y-8645700D01*
X9502300Y-8905400D02*
X9522300Y-8925400D01*
X9522300Y-8905400D02*
X9502300Y-8925400D01*
X9692800Y-9525350D02*
X9712800Y-9545350D01*
X9712800Y-9525350D02*
X9692800Y-9545350D01*
X10594500Y-7330600D02*
X10614500Y-7350600D01*
X10614500Y-7330600D02*
X10594500Y-7350600D01*
X10735207Y-7680225D02*
X10755207Y-7700225D01*
X10755207Y-7680225D02*
X10735207Y-7700225D01*
X10735207Y-8670825D02*
X10755207Y-8690825D01*
X10755207Y-8670825D02*
X10735207Y-8690825D01*
X10735207Y-9661425D02*
X10755207Y-9681425D01*
X10755207Y-9661425D02*
X10735207Y-9681425D01*
X10735207Y-10652025D02*
X10755207Y-10672025D01*
X10755207Y-10652025D02*
X10735207Y-10672025D01*
X10810400Y-7333050D02*
X10830400Y-7353050D01*
X10830400Y-7333050D02*
X10810400Y-7353050D01*
X10810400Y-7929850D02*
X10830400Y-7949850D01*
X10830400Y-7929850D02*
X10810400Y-7949850D01*
X10810400Y-8323650D02*
X10830400Y-8343650D01*
X10830400Y-8323650D02*
X10810400Y-8343650D01*
X10810400Y-8920450D02*
X10830400Y-8940450D01*
X10830400Y-8920450D02*
X10810400Y-8940450D01*
X10810400Y-9314250D02*
X10830400Y-9334250D01*
X10830400Y-9314250D02*
X10810400Y-9334250D01*
X10810400Y-9911050D02*
X10830400Y-9931050D01*
X10830400Y-9911050D02*
X10810400Y-9931050D01*
X10810400Y-10304850D02*
X10830400Y-10324850D01*
X10830400Y-10304850D02*
X10810400Y-10324850D01*
X10810400Y-10901650D02*
X10830400Y-10921650D01*
X10830400Y-10901650D02*
X10810400Y-10921650D01*
X11031900Y-7526700D02*
X11051900Y-7546700D01*
X11051900Y-7526700D02*
X11031900Y-7546700D01*
X11031900Y-8517300D02*
X11051900Y-8537300D01*
X11051900Y-8517300D02*
X11031900Y-8537300D01*
X11031900Y-9507900D02*
X11051900Y-9527900D01*
X11051900Y-9507900D02*
X11031900Y-9527900D01*
X11031900Y-10498500D02*
X11051900Y-10518500D01*
X11051900Y-10498500D02*
X11031900Y-10518500D01*
X11032975Y-7949893D02*
X11052975Y-7969893D01*
X11052975Y-7949893D02*
X11032975Y-7969893D01*
X11032975Y-8940493D02*
X11052975Y-8960493D01*
X11052975Y-8940493D02*
X11032975Y-8960493D01*
X11032975Y-9931093D02*
X11052975Y-9951093D01*
X11052975Y-9931093D02*
X11032975Y-9951093D01*
X11032975Y-10921693D02*
X11052975Y-10941693D01*
X11052975Y-10921693D02*
X11032975Y-10941693D01*
X11067993Y-7146140D02*
X11087993Y-7166140D01*
X11087993Y-7146140D02*
X11067993Y-7166140D01*
X11067993Y-8136740D02*
X11087993Y-8156740D01*
X11087993Y-8136740D02*
X11067993Y-8156740D01*
X11067993Y-9127340D02*
X11087993Y-9147340D01*
X11087993Y-9127340D02*
X11067993Y-9147340D01*
X11067993Y-10117940D02*
X11087993Y-10137940D01*
X11087993Y-10117940D02*
X11067993Y-10137940D01*
X11191400Y-7520450D02*
X11211400Y-7540450D01*
X11211400Y-7520450D02*
X11191400Y-7540450D01*
X11191400Y-8511050D02*
X11211400Y-8531050D01*
X11211400Y-8511050D02*
X11191400Y-8531050D01*
X11191400Y-9501650D02*
X11211400Y-9521650D01*
X11211400Y-9501650D02*
X11191400Y-9521650D01*
X11191400Y-10492250D02*
X11211400Y-10512250D01*
X11211400Y-10492250D02*
X11191400Y-10512250D01*
X11216800Y-7635400D02*
X11236800Y-7655400D01*
X11236800Y-7635400D02*
X11216800Y-7655400D01*
X11216800Y-8626000D02*
X11236800Y-8646000D01*
X11236800Y-8626000D02*
X11216800Y-8646000D01*
X11216800Y-9616600D02*
X11236800Y-9636600D01*
X11236800Y-9616600D02*
X11216800Y-9636600D01*
X11216800Y-10607200D02*
X11236800Y-10627200D01*
X11236800Y-10607200D02*
X11216800Y-10627200D01*
X11267731Y-7698632D02*
X11287731Y-7718632D01*
X11287731Y-7698632D02*
X11267731Y-7718632D01*
X11267731Y-8689232D02*
X11287731Y-8709232D01*
X11287731Y-8689232D02*
X11267731Y-8709232D01*
X11267731Y-9679832D02*
X11287731Y-9699832D01*
X11287731Y-9679832D02*
X11267731Y-9699832D01*
X11267731Y-10670432D02*
X11287731Y-10690432D01*
X11287731Y-10670432D02*
X11267731Y-10690432D01*
X11356500Y-8270945D02*
X11376500Y-8290945D01*
X11376500Y-8270945D02*
X11356500Y-8290945D01*
X11356500Y-9261545D02*
X11376500Y-9281545D01*
X11376500Y-9261545D02*
X11356500Y-9281545D01*
X11356500Y-10252145D02*
X11376500Y-10272145D01*
X11376500Y-10252145D02*
X11356500Y-10272145D01*
X11356684Y-7280603D02*
X11376684Y-7300603D01*
X11376684Y-7280603D02*
X11356684Y-7300603D01*
X11369200Y-7692850D02*
X11389200Y-7712850D01*
X11389200Y-7692850D02*
X11369200Y-7712850D01*
X11369200Y-8683450D02*
X11389200Y-8703450D01*
X11389200Y-8683450D02*
X11369200Y-8703450D01*
X11369200Y-9674050D02*
X11389200Y-9694050D01*
X11389200Y-9674050D02*
X11369200Y-9694050D01*
X11369200Y-10664650D02*
X11389200Y-10684650D01*
X11389200Y-10664650D02*
X11369200Y-10684650D01*
X11467950Y-7658893D02*
X11487950Y-7678893D01*
X11487950Y-7658893D02*
X11467950Y-7678893D01*
X11467950Y-8649493D02*
X11487950Y-8669493D01*
X11487950Y-8649493D02*
X11467950Y-8669493D01*
X11467950Y-9640093D02*
X11487950Y-9660093D01*
X11487950Y-9640093D02*
X11467950Y-9660093D01*
X11467950Y-10630693D02*
X11487950Y-10650693D01*
X11487950Y-10630693D02*
X11467950Y-10650693D01*
X12226400Y-7889518D02*
X12246400Y-7909518D01*
X12246400Y-7889518D02*
X12226400Y-7909518D01*
X12226400Y-8880118D02*
X12246400Y-8900118D01*
X12246400Y-8880118D02*
X12226400Y-8900118D01*
X12226400Y-9870718D02*
X12246400Y-9890718D01*
X12246400Y-9870718D02*
X12226400Y-9890718D01*
X12226400Y-10861318D02*
X12246400Y-10881318D01*
X12246400Y-10861318D02*
X12226400Y-10881318D01*
X12296300Y-7508400D02*
X12316300Y-7528400D01*
X12316300Y-7508400D02*
X12296300Y-7528400D01*
X12296300Y-8499000D02*
X12316300Y-8519000D01*
X12316300Y-8499000D02*
X12296300Y-8519000D01*
X12296300Y-9489600D02*
X12316300Y-9509600D01*
X12316300Y-9489600D02*
X12296300Y-9509600D01*
X12296300Y-10480200D02*
X12316300Y-10500200D01*
X12316300Y-10480200D02*
X12296300Y-10500200D01*
D13*
X6395400Y-11137900D02*
G75*
G03*
X6395400Y-11137900I-20000J0D01*
G01*
X6585900Y-6908800D02*
G75*
G03*
X6585900Y-6908800I-20000J0D01*
G01*
X6598600Y-10134600D02*
G75*
G03*
X6598600Y-10134600I-20000J0D01*
G01*
X6700200Y-7708900D02*
G75*
G03*
X6700200Y-7708900I-20000J0D01*
G01*
X6878000Y-8280400D02*
G75*
G03*
X6878000Y-8280400I-20000J0D01*
G01*
X6878000Y-8826500D02*
G75*
G03*
X6878000Y-8826500I-20000J0D01*
G01*
X6903400Y-11264900D02*
G75*
G03*
X6903400Y-11264900I-20000J0D01*
G01*
X7055800Y-7188200D02*
G75*
G03*
X7055800Y-7188200I-20000J0D01*
G01*
X7182800Y-9071750D02*
G75*
G03*
X7182800Y-9071750I-20000J0D01*
G01*
X7411400Y-9550400D02*
G75*
G03*
X7411400Y-9550400I-20000J0D01*
G01*
X7525700Y-9156700D02*
G75*
G03*
X7525700Y-9156700I-20000J0D01*
G01*
X7703500Y-6972300D02*
G75*
G03*
X7703500Y-6972300I-20000J0D01*
G01*
X7716200Y-7404100D02*
G75*
G03*
X7716200Y-7404100I-20000J0D01*
G01*
X7733905Y-10546324D02*
G75*
G03*
X7733905Y-10546324I-20000J0D01*
G01*
X7767000Y-10337800D02*
G75*
G03*
X7767000Y-10337800I-20000J0D01*
G01*
X7779700Y-9791700D02*
G75*
G03*
X7779700Y-9791700I-20000J0D01*
G01*
X7830500Y-11366500D02*
G75*
G03*
X7830500Y-11366500I-20000J0D01*
G01*
X7944800Y-10147300D02*
G75*
G03*
X7944800Y-10147300I-20000J0D01*
G01*
X8084500Y-9055100D02*
G75*
G03*
X8084500Y-9055100I-20000J0D01*
G01*
X8211500Y-9550400D02*
G75*
G03*
X8211500Y-9550400I-20000J0D01*
G01*
X8617900Y-6781800D02*
G75*
G03*
X8617900Y-6781800I-20000J0D01*
G01*
X8617900Y-7239000D02*
G75*
G03*
X8617900Y-7239000I-20000J0D01*
G01*
X8757600Y-9956800D02*
G75*
G03*
X8757600Y-9956800I-20000J0D01*
G01*
X8821100Y-8763000D02*
G75*
G03*
X8821100Y-8763000I-20000J0D01*
G01*
X8935400Y-8432800D02*
G75*
G03*
X8935400Y-8432800I-20000J0D01*
G01*
X9077626Y-8649515D02*
G75*
G03*
X9077626Y-8649515I-20000J0D01*
G01*
X9316400Y-8229600D02*
G75*
G03*
X9316400Y-8229600I-20000J0D01*
G01*
X9418000Y-8280400D02*
G75*
G03*
X9418000Y-8280400I-20000J0D01*
G01*
X9709670Y-9309530D02*
G75*
G03*
X9709670Y-9309530I-20000J0D01*
G01*
X9735500Y-10337800D02*
G75*
G03*
X9735500Y-10337800I-20000J0D01*
G01*
X9824400Y-10655300D02*
G75*
G03*
X9824400Y-10655300I-20000J0D01*
G01*
X9824400Y-10909300D02*
G75*
G03*
X9824400Y-10909300I-20000J0D01*
G01*
X9824400Y-11163300D02*
G75*
G03*
X9824400Y-11163300I-20000J0D01*
G01*
X9824400Y-11417300D02*
G75*
G03*
X9824400Y-11417300I-20000J0D01*
G01*
X9837100Y-6794500D02*
G75*
G03*
X9837100Y-6794500I-20000J0D01*
G01*
X9837100Y-7048500D02*
G75*
G03*
X9837100Y-7048500I-20000J0D01*
G01*
X9837100Y-7302500D02*
G75*
G03*
X9837100Y-7302500I-20000J0D01*
G01*
X9887900Y-9423400D02*
G75*
G03*
X9887900Y-9423400I-20000J0D01*
G01*
X9902035Y-9522346D02*
G75*
G03*
X9902035Y-9522346I-20000J0D01*
G01*
X9913300Y-8585200D02*
G75*
G03*
X9913300Y-8585200I-20000J0D01*
G01*
X10065700Y-6794500D02*
G75*
G03*
X10065700Y-6794500I-20000J0D01*
G01*
X10065700Y-7048500D02*
G75*
G03*
X10065700Y-7048500I-20000J0D01*
G01*
X10065700Y-7302500D02*
G75*
G03*
X10065700Y-7302500I-20000J0D01*
G01*
X10065700Y-7556500D02*
G75*
G03*
X10065700Y-7556500I-20000J0D01*
G01*
X10065700Y-7810500D02*
G75*
G03*
X10065700Y-7810500I-20000J0D01*
G01*
X10065700Y-8064500D02*
G75*
G03*
X10065700Y-8064500I-20000J0D01*
G01*
X10065700Y-8318500D02*
G75*
G03*
X10065700Y-8318500I-20000J0D01*
G01*
X10065700Y-9385300D02*
G75*
G03*
X10065700Y-9385300I-20000J0D01*
G01*
X10065700Y-9639300D02*
G75*
G03*
X10065700Y-9639300I-20000J0D01*
G01*
X10065700Y-9893300D02*
G75*
G03*
X10065700Y-9893300I-20000J0D01*
G01*
X10065700Y-10147300D02*
G75*
G03*
X10065700Y-10147300I-20000J0D01*
G01*
X10065700Y-10401300D02*
G75*
G03*
X10065700Y-10401300I-20000J0D01*
G01*
X10065700Y-10655300D02*
G75*
G03*
X10065700Y-10655300I-20000J0D01*
G01*
X10065700Y-10909300D02*
G75*
G03*
X10065700Y-10909300I-20000J0D01*
G01*
X10065700Y-11163300D02*
G75*
G03*
X10065700Y-11163300I-20000J0D01*
G01*
X10065700Y-11417300D02*
G75*
G03*
X10065700Y-11417300I-20000J0D01*
G01*
X10281600Y-10083800D02*
G75*
G03*
X10281600Y-10083800I-20000J0D01*
G01*
X10395900Y-7674900D02*
G75*
G03*
X10395900Y-7674900I-20000J0D01*
G01*
X10395900Y-8978900D02*
G75*
G03*
X10395900Y-8978900I-20000J0D01*
G01*
X10408600Y-9245600D02*
G75*
G03*
X10408600Y-9245600I-20000J0D01*
G01*
X10491146Y-7109037D02*
G75*
G03*
X10491146Y-7109037I-20000J0D01*
G01*
X10522900Y-7497100D02*
G75*
G03*
X10522900Y-7497100I-20000J0D01*
G01*
X10522900Y-8486333D02*
G75*
G03*
X10522900Y-8486333I-20000J0D01*
G01*
X10522900Y-9475567D02*
G75*
G03*
X10522900Y-9475567I-20000J0D01*
G01*
X10522900Y-10464800D02*
G75*
G03*
X10522900Y-10464800I-20000J0D01*
G01*
X10840400Y-7137400D02*
G75*
G03*
X10840400Y-7137400I-20000J0D01*
G01*
X10840400Y-8089900D02*
G75*
G03*
X10840400Y-8089900I-20000J0D01*
G01*
X10840400Y-9080500D02*
G75*
G03*
X10840400Y-9080500I-20000J0D01*
G01*
X10840400Y-10071100D02*
G75*
G03*
X10840400Y-10071100I-20000J0D01*
G01*
X10878500Y-11049000D02*
G75*
G03*
X10878500Y-11049000I-20000J0D01*
G01*
X11196000Y-6997700D02*
G75*
G03*
X11196000Y-6997700I-20000J0D01*
G01*
X11526200Y-11032550D02*
G75*
G03*
X11526200Y-11032550I-20000J0D01*
G01*
X11678600Y-8089900D02*
G75*
G03*
X11678600Y-8089900I-20000J0D01*
G01*
X11678600Y-9080500D02*
G75*
G03*
X11678600Y-9080500I-20000J0D01*
G01*
X11678600Y-10071100D02*
G75*
G03*
X11678600Y-10071100I-20000J0D01*
G01*
X11678600Y-11150600D02*
G75*
G03*
X11678600Y-11150600I-20000J0D01*
G01*
X11932600Y-8089900D02*
G75*
G03*
X11932600Y-8089900I-20000J0D01*
G01*
X11932600Y-9080500D02*
G75*
G03*
X11932600Y-9080500I-20000J0D01*
G01*
X11932600Y-10071100D02*
G75*
G03*
X11932600Y-10071100I-20000J0D01*
G01*
X12173900Y-11341100D02*
G75*
G03*
X12173900Y-11341100I-20000J0D01*
G01*
X12275500Y-6743700D02*
G75*
G03*
X12275500Y-6743700I-20000J0D01*
G01*
X12453300Y-8089900D02*
G75*
G03*
X12453300Y-8089900I-20000J0D01*
G01*
X12453300Y-9080500D02*
G75*
G03*
X12453300Y-9080500I-20000J0D01*
G01*
X12453300Y-10071100D02*
G75*
G03*
X12453300Y-10071100I-20000J0D01*
G01*
X12859700Y-8089900D02*
G75*
G03*
X12859700Y-8089900I-20000J0D01*
G01*
X12859700Y-9080500D02*
G75*
G03*
X12859700Y-9080500I-20000J0D01*
G01*
X12859700Y-10071100D02*
G75*
G03*
X12859700Y-10071100I-20000J0D01*
G01*
D14*
X6544600Y-9685300D02*
X6544600Y-9745300D01*
X6514600Y-9715300D02*
X6574600Y-9715300D01*
D11*
X6514600Y-9745300D02*
X6574600Y-9745300D01*
X6514600Y-9685300D02*
X6574600Y-9685300D01*
X6574600Y-9745300D02*
G75*
G03*
X6574600Y-9685300I0J30000D01*
G01*
X6514600Y-9685300D02*
G75*
G03*
X6514600Y-9745300I0J-30000D01*
G01*
D14*
X6544600Y-10549300D02*
X6544600Y-10609300D01*
X6514600Y-10579300D02*
X6574600Y-10579300D01*
D11*
X6514600Y-10609300D02*
X6574600Y-10609300D01*
X6514600Y-10549300D02*
X6574600Y-10549300D01*
X6574600Y-10609300D02*
G75*
G03*
X6574600Y-10549300I0J30000D01*
G01*
X6514600Y-10549300D02*
G75*
G03*
X6514600Y-10609300I0J-30000D01*
G01*
D14*
X6962600Y-9685300D02*
X6962600Y-9745300D01*
X6932600Y-9715300D02*
X6992600Y-9715300D01*
D11*
X6907600Y-9745300D02*
X7017600Y-9745300D01*
X6907600Y-9685300D02*
X7017600Y-9685300D01*
X7017600Y-9745300D02*
G75*
G03*
X7017600Y-9685300I0J30000D01*
G01*
X6907600Y-9685300D02*
G75*
G03*
X6907600Y-9745300I0J-30000D01*
G01*
D14*
X6962600Y-10549300D02*
X6962600Y-10609300D01*
X6932600Y-10579300D02*
X6992600Y-10579300D01*
D11*
X6907600Y-10609300D02*
X7017600Y-10609300D01*
X6907600Y-10549300D02*
X7017600Y-10549300D01*
X7017600Y-10609300D02*
G75*
G03*
X7017600Y-10549300I0J30000D01*
G01*
X6907600Y-10549300D02*
G75*
G03*
X6907600Y-10609300I0J-30000D01*
G01*
D15*
X6512356Y-7972856D02*
X6512356Y-7902144D01*
X6441644Y-7902144D01*
X6441644Y-7972856D01*
X6512356Y-7972856D01*
X6512356Y-8226856D02*
X6512356Y-8156144D01*
X6441644Y-8156144D01*
X6441644Y-8226856D01*
X6512356Y-8226856D01*
X6512356Y-8480856D02*
X6512356Y-8410144D01*
X6441644Y-8410144D01*
X6441644Y-8480856D01*
X6512356Y-8480856D01*
X6512356Y-8734856D02*
X6512356Y-8664144D01*
X6441644Y-8664144D01*
X6441644Y-8734856D01*
X6512356Y-8734856D01*
X6512356Y-8988856D02*
X6512356Y-8918144D01*
X6441644Y-8918144D01*
X6441644Y-8988856D01*
X6512356Y-8988856D01*
X6512356Y-9242856D02*
X6512356Y-9172144D01*
X6441644Y-9172144D01*
X6441644Y-9242856D01*
X6512356Y-9242856D01*
X6512356Y-9496856D02*
X6512356Y-9426144D01*
X6441644Y-9426144D01*
X6441644Y-9496856D01*
X6512356Y-9496856D01*
X8731306Y-11034056D02*
X8731306Y-10963344D01*
X8660594Y-10963344D01*
X8660594Y-11034056D01*
X8731306Y-11034056D01*
X8731306Y-11288056D02*
X8731306Y-11217344D01*
X8660594Y-11217344D01*
X8660594Y-11288056D01*
X8731306Y-11288056D01*
X9000556Y-7515656D02*
X9000556Y-7444944D01*
X8929844Y-7444944D01*
X8929844Y-7515656D01*
X9000556Y-7515656D01*
X9000556Y-7769656D02*
X9000556Y-7698944D01*
X8929844Y-7698944D01*
X8929844Y-7769656D01*
X9000556Y-7769656D01*
X9254556Y-7515656D02*
X9254556Y-7444944D01*
X9183844Y-7444944D01*
X9183844Y-7515656D01*
X9254556Y-7515656D01*
X9254556Y-7769656D02*
X9254556Y-7698944D01*
X9183844Y-7698944D01*
X9183844Y-7769656D01*
X9254556Y-7769656D01*
X9508556Y-7515656D02*
X9508556Y-7444944D01*
X9437844Y-7444944D01*
X9437844Y-7515656D01*
X9508556Y-7515656D01*
X9508556Y-7769656D02*
X9508556Y-7698944D01*
X9437844Y-7698944D01*
X9437844Y-7769656D01*
X9508556Y-7769656D01*
X9762556Y-7515656D02*
X9762556Y-7444944D01*
X9691844Y-7444944D01*
X9691844Y-7515656D01*
X9762556Y-7515656D01*
X9762556Y-7769656D02*
X9762556Y-7698944D01*
X9691844Y-7698944D01*
X9691844Y-7769656D01*
X9762556Y-7769656D01*
D16*
X7311100Y-11060200D02*
X7371100Y-11000200D01*
X7311100Y-10940200D01*
X7251100Y-11000200D01*
X7311100Y-11060200D01*
X7311100Y-11310200D02*
X7371100Y-11250200D01*
X7311100Y-11190200D01*
X7251100Y-11250200D01*
X7311100Y-11310200D01*
X7561100Y-11060200D02*
X7621100Y-11000200D01*
X7561100Y-10940200D01*
X7501100Y-11000200D01*
X7561100Y-11060200D01*
X7561100Y-11310200D02*
X7621100Y-11250200D01*
X7561100Y-11190200D01*
X7501100Y-11250200D01*
X7561100Y-11310200D01*
X11658600Y-7529600D02*
X11718600Y-7469600D01*
X11658600Y-7409600D01*
X11598600Y-7469600D01*
X11658600Y-7529600D01*
X11658600Y-7779600D02*
X11718600Y-7719600D01*
X11658600Y-7659600D01*
X11598600Y-7719600D01*
X11658600Y-7779600D01*
X11658600Y-8520200D02*
X11718600Y-8460200D01*
X11658600Y-8400200D01*
X11598600Y-8460200D01*
X11658600Y-8520200D01*
X11658600Y-8770200D02*
X11718600Y-8710200D01*
X11658600Y-8650200D01*
X11598600Y-8710200D01*
X11658600Y-8770200D01*
X11658600Y-9510800D02*
X11718600Y-9450800D01*
X11658600Y-9390800D01*
X11598600Y-9450800D01*
X11658600Y-9510800D01*
X11658600Y-9760800D02*
X11718600Y-9700800D01*
X11658600Y-9640800D01*
X11598600Y-9700800D01*
X11658600Y-9760800D01*
X11658600Y-10488700D02*
X11718600Y-10428700D01*
X11658600Y-10368700D01*
X11598600Y-10428700D01*
X11658600Y-10488700D01*
X11658600Y-10738700D02*
X11718600Y-10678700D01*
X11658600Y-10618700D01*
X11598600Y-10678700D01*
X11658600Y-10738700D01*
X11908600Y-7529600D02*
X11968600Y-7469600D01*
X11908600Y-7409600D01*
X11848600Y-7469600D01*
X11908600Y-7529600D01*
X11908600Y-7779600D02*
X11968600Y-7719600D01*
X11908600Y-7659600D01*
X11848600Y-7719600D01*
X11908600Y-7779600D01*
X11908600Y-8520200D02*
X11968600Y-8460200D01*
X11908600Y-8400200D01*
X11848600Y-8460200D01*
X11908600Y-8520200D01*
X11908600Y-8770200D02*
X11968600Y-8710200D01*
X11908600Y-8650200D01*
X11848600Y-8710200D01*
X11908600Y-8770200D01*
X11908600Y-9510800D02*
X11968600Y-9450800D01*
X11908600Y-9390800D01*
X11848600Y-9450800D01*
X11908600Y-9510800D01*
X11908600Y-9760800D02*
X11968600Y-9700800D01*
X11908600Y-9640800D01*
X11848600Y-9700800D01*
X11908600Y-9760800D01*
X11908600Y-10488700D02*
X11968600Y-10428700D01*
X11908600Y-10368700D01*
X11848600Y-10428700D01*
X11908600Y-10488700D01*
X11908600Y-10738700D02*
X11968600Y-10678700D01*
X11908600Y-10618700D01*
X11848600Y-10678700D01*
X11908600Y-10738700D01*
D11*
X6478119Y-11881644D02*
X6478119Y-11681644D01*
X6525738Y-11681644D01*
X6554309Y-11691168D01*
X6573357Y-11710216D01*
X6582881Y-11729263D01*
X6592405Y-11767358D01*
X6592405Y-11795930D01*
X6582881Y-11834025D01*
X6573357Y-11853073D01*
X6554309Y-11872120D01*
X6525738Y-11881644D01*
X6478119Y-11881644D01*
X6678119Y-11881644D02*
X6678119Y-11748311D01*
X6678119Y-11786406D02*
X6687643Y-11767358D01*
X6697167Y-11757835D01*
X6716214Y-11748311D01*
X6735262Y-11748311D01*
X6801928Y-11881644D02*
X6801928Y-11748311D01*
X6801928Y-11681644D02*
X6792405Y-11691168D01*
X6801928Y-11700692D01*
X6811452Y-11691168D01*
X6801928Y-11681644D01*
X6801928Y-11700692D01*
X6925738Y-11881644D02*
X6906690Y-11872120D01*
X6897167Y-11853073D01*
X6897167Y-11681644D01*
X7030500Y-11881644D02*
X7011452Y-11872120D01*
X7001928Y-11853073D01*
X7001928Y-11681644D01*
X7259071Y-11881644D02*
X7259071Y-11681644D01*
X7325738Y-11824501D01*
X7392405Y-11681644D01*
X7392405Y-11881644D01*
X7573357Y-11881644D02*
X7573357Y-11776882D01*
X7563833Y-11757835D01*
X7544786Y-11748311D01*
X7506690Y-11748311D01*
X7487643Y-11757835D01*
X7573357Y-11872120D02*
X7554309Y-11881644D01*
X7506690Y-11881644D01*
X7487643Y-11872120D01*
X7478119Y-11853073D01*
X7478119Y-11834025D01*
X7487643Y-11814977D01*
X7506690Y-11805454D01*
X7554309Y-11805454D01*
X7573357Y-11795930D01*
X7668595Y-11748311D02*
X7668595Y-11948311D01*
X7668595Y-11757835D02*
X7687643Y-11748311D01*
X7725738Y-11748311D01*
X7744786Y-11757835D01*
X7754309Y-11767358D01*
X7763833Y-11786406D01*
X7763833Y-11843549D01*
X7754309Y-11862596D01*
X7744786Y-11872120D01*
X7725738Y-11881644D01*
X7687643Y-11881644D01*
X7668595Y-11872120D01*
X7849548Y-11862596D02*
X7859071Y-11872120D01*
X7849548Y-11881644D01*
X7840024Y-11872120D01*
X7849548Y-11862596D01*
X7849548Y-11881644D01*
X7849548Y-11757835D02*
X7859071Y-11767358D01*
X7849548Y-11776882D01*
X7840024Y-11767358D01*
X7849548Y-11757835D01*
X7849548Y-11776882D01*
D12*
X6200500Y-12201168D02*
X6220500Y-12221168D01*
X6220500Y-12201168D02*
X6200500Y-12221168D01*
D11*
X6516214Y-12101644D02*
X6535262Y-12101644D01*
X6554309Y-12111168D01*
X6563833Y-12120692D01*
X6573357Y-12139739D01*
X6582881Y-12177835D01*
X6582881Y-12225454D01*
X6573357Y-12263549D01*
X6563833Y-12282596D01*
X6554309Y-12292120D01*
X6535262Y-12301644D01*
X6516214Y-12301644D01*
X6497167Y-12292120D01*
X6487643Y-12282596D01*
X6478119Y-12263549D01*
X6468595Y-12225454D01*
X6468595Y-12177835D01*
X6478119Y-12139739D01*
X6487643Y-12120692D01*
X6497167Y-12111168D01*
X6516214Y-12101644D01*
X6668595Y-12282596D02*
X6678119Y-12292120D01*
X6668595Y-12301644D01*
X6659071Y-12292120D01*
X6668595Y-12282596D01*
X6668595Y-12301644D01*
X6754309Y-12120692D02*
X6763833Y-12111168D01*
X6782881Y-12101644D01*
X6830500Y-12101644D01*
X6849548Y-12111168D01*
X6859071Y-12120692D01*
X6868595Y-12139739D01*
X6868595Y-12158787D01*
X6859071Y-12187358D01*
X6744786Y-12301644D01*
X6868595Y-12301644D01*
X6992405Y-12101644D02*
X7011452Y-12101644D01*
X7030500Y-12111168D01*
X7040024Y-12120692D01*
X7049548Y-12139739D01*
X7059071Y-12177835D01*
X7059071Y-12225454D01*
X7049548Y-12263549D01*
X7040024Y-12282596D01*
X7030500Y-12292120D01*
X7011452Y-12301644D01*
X6992405Y-12301644D01*
X6973357Y-12292120D01*
X6963833Y-12282596D01*
X6954309Y-12263549D01*
X6944786Y-12225454D01*
X6944786Y-12177835D01*
X6954309Y-12139739D01*
X6963833Y-12120692D01*
X6973357Y-12111168D01*
X6992405Y-12101644D01*
X7182881Y-12101644D02*
X7201928Y-12101644D01*
X7220976Y-12111168D01*
X7230500Y-12120692D01*
X7240024Y-12139739D01*
X7249548Y-12177835D01*
X7249548Y-12225454D01*
X7240024Y-12263549D01*
X7230500Y-12282596D01*
X7220976Y-12292120D01*
X7201928Y-12301644D01*
X7182881Y-12301644D01*
X7163833Y-12292120D01*
X7154309Y-12282596D01*
X7144786Y-12263549D01*
X7135262Y-12225454D01*
X7135262Y-12177835D01*
X7144786Y-12139739D01*
X7154309Y-12120692D01*
X7163833Y-12111168D01*
X7182881Y-12101644D01*
X7335262Y-12301644D02*
X7335262Y-12168311D01*
X7335262Y-12187358D02*
X7344786Y-12177835D01*
X7363833Y-12168311D01*
X7392405Y-12168311D01*
X7411452Y-12177835D01*
X7420976Y-12196882D01*
X7420976Y-12301644D01*
X7420976Y-12196882D02*
X7430500Y-12177835D01*
X7449548Y-12168311D01*
X7478119Y-12168311D01*
X7497167Y-12177835D01*
X7506690Y-12196882D01*
X7506690Y-12301644D01*
X7601928Y-12301644D02*
X7601928Y-12168311D01*
X7601928Y-12187358D02*
X7611452Y-12177835D01*
X7630500Y-12168311D01*
X7659071Y-12168311D01*
X7678119Y-12177835D01*
X7687643Y-12196882D01*
X7687643Y-12301644D01*
X7687643Y-12196882D02*
X7697167Y-12177835D01*
X7716214Y-12168311D01*
X7744786Y-12168311D01*
X7763833Y-12177835D01*
X7773357Y-12196882D01*
X7773357Y-12301644D01*
X8163833Y-12092120D02*
X7992405Y-12349263D01*
X8420976Y-12101644D02*
X8440024Y-12101644D01*
X8459071Y-12111168D01*
X8468595Y-12120692D01*
X8478119Y-12139739D01*
X8487643Y-12177835D01*
X8487643Y-12225454D01*
X8478119Y-12263549D01*
X8468595Y-12282596D01*
X8459071Y-12292120D01*
X8440024Y-12301644D01*
X8420976Y-12301644D01*
X8401929Y-12292120D01*
X8392405Y-12282596D01*
X8382881Y-12263549D01*
X8373357Y-12225454D01*
X8373357Y-12177835D01*
X8382881Y-12139739D01*
X8392405Y-12120692D01*
X8401929Y-12111168D01*
X8420976Y-12101644D01*
X8573357Y-12282596D02*
X8582881Y-12292120D01*
X8573357Y-12301644D01*
X8563833Y-12292120D01*
X8573357Y-12282596D01*
X8573357Y-12301644D01*
X8706690Y-12101644D02*
X8725738Y-12101644D01*
X8744786Y-12111168D01*
X8754310Y-12120692D01*
X8763833Y-12139739D01*
X8773357Y-12177835D01*
X8773357Y-12225454D01*
X8763833Y-12263549D01*
X8754310Y-12282596D01*
X8744786Y-12292120D01*
X8725738Y-12301644D01*
X8706690Y-12301644D01*
X8687643Y-12292120D01*
X8678119Y-12282596D01*
X8668595Y-12263549D01*
X8659071Y-12225454D01*
X8659071Y-12177835D01*
X8668595Y-12139739D01*
X8678119Y-12120692D01*
X8687643Y-12111168D01*
X8706690Y-12101644D01*
X8897167Y-12101644D02*
X8916214Y-12101644D01*
X8935262Y-12111168D01*
X8944786Y-12120692D01*
X8954310Y-12139739D01*
X8963833Y-12177835D01*
X8963833Y-12225454D01*
X8954310Y-12263549D01*
X8944786Y-12282596D01*
X8935262Y-12292120D01*
X8916214Y-12301644D01*
X8897167Y-12301644D01*
X8878119Y-12292120D01*
X8868595Y-12282596D01*
X8859071Y-12263549D01*
X8849548Y-12225454D01*
X8849548Y-12177835D01*
X8859071Y-12139739D01*
X8868595Y-12120692D01*
X8878119Y-12111168D01*
X8897167Y-12101644D01*
X9030500Y-12101644D02*
X9163833Y-12101644D01*
X9078119Y-12301644D01*
X9249548Y-12301644D02*
X9287643Y-12301644D01*
X9306690Y-12292120D01*
X9316214Y-12282596D01*
X9335262Y-12254025D01*
X9344786Y-12215930D01*
X9344786Y-12139739D01*
X9335262Y-12120692D01*
X9325738Y-12111168D01*
X9306690Y-12101644D01*
X9268595Y-12101644D01*
X9249548Y-12111168D01*
X9240024Y-12120692D01*
X9230500Y-12139739D01*
X9230500Y-12187358D01*
X9240024Y-12206406D01*
X9249548Y-12215930D01*
X9268595Y-12225454D01*
X9306690Y-12225454D01*
X9325738Y-12215930D01*
X9335262Y-12206406D01*
X9344786Y-12187358D01*
X9420976Y-12101644D02*
X9420976Y-12139739D01*
X9497167Y-12101644D02*
X9497167Y-12139739D01*
X9792405Y-12377835D02*
X9782881Y-12368311D01*
X9763833Y-12339739D01*
X9754310Y-12320692D01*
X9744786Y-12292120D01*
X9735262Y-12244501D01*
X9735262Y-12206406D01*
X9744786Y-12158787D01*
X9754310Y-12130216D01*
X9763833Y-12111168D01*
X9782881Y-12082596D01*
X9792405Y-12073073D01*
X9897167Y-12187358D02*
X9878119Y-12177835D01*
X9868595Y-12168311D01*
X9859071Y-12149263D01*
X9859071Y-12139739D01*
X9868595Y-12120692D01*
X9878119Y-12111168D01*
X9897167Y-12101644D01*
X9935262Y-12101644D01*
X9954310Y-12111168D01*
X9963833Y-12120692D01*
X9973357Y-12139739D01*
X9973357Y-12149263D01*
X9963833Y-12168311D01*
X9954310Y-12177835D01*
X9935262Y-12187358D01*
X9897167Y-12187358D01*
X9878119Y-12196882D01*
X9868595Y-12206406D01*
X9859071Y-12225454D01*
X9859071Y-12263549D01*
X9868595Y-12282596D01*
X9878119Y-12292120D01*
X9897167Y-12301644D01*
X9935262Y-12301644D01*
X9954310Y-12292120D01*
X9963833Y-12282596D01*
X9973357Y-12263549D01*
X9973357Y-12225454D01*
X9963833Y-12206406D01*
X9954310Y-12196882D01*
X9935262Y-12187358D01*
X10144786Y-12101644D02*
X10106690Y-12101644D01*
X10087643Y-12111168D01*
X10078119Y-12120692D01*
X10059071Y-12149263D01*
X10049548Y-12187358D01*
X10049548Y-12263549D01*
X10059071Y-12282596D01*
X10068595Y-12292120D01*
X10087643Y-12301644D01*
X10125738Y-12301644D01*
X10144786Y-12292120D01*
X10154310Y-12282596D01*
X10163833Y-12263549D01*
X10163833Y-12215930D01*
X10154310Y-12196882D01*
X10144786Y-12187358D01*
X10125738Y-12177835D01*
X10087643Y-12177835D01*
X10068595Y-12187358D01*
X10059071Y-12196882D01*
X10049548Y-12215930D01*
X10401929Y-12301644D02*
X10401929Y-12101644D01*
X10487643Y-12301644D02*
X10487643Y-12196882D01*
X10478119Y-12177835D01*
X10459071Y-12168311D01*
X10430500Y-12168311D01*
X10411452Y-12177835D01*
X10401929Y-12187358D01*
X10611452Y-12301644D02*
X10592405Y-12292120D01*
X10582881Y-12282596D01*
X10573357Y-12263549D01*
X10573357Y-12206406D01*
X10582881Y-12187358D01*
X10592405Y-12177835D01*
X10611452Y-12168311D01*
X10640024Y-12168311D01*
X10659071Y-12177835D01*
X10668595Y-12187358D01*
X10678119Y-12206406D01*
X10678119Y-12263549D01*
X10668595Y-12282596D01*
X10659071Y-12292120D01*
X10640024Y-12301644D01*
X10611452Y-12301644D01*
X10792405Y-12301644D02*
X10773357Y-12292120D01*
X10763833Y-12273073D01*
X10763833Y-12101644D01*
X10944786Y-12292120D02*
X10925738Y-12301644D01*
X10887643Y-12301644D01*
X10868595Y-12292120D01*
X10859071Y-12273073D01*
X10859071Y-12196882D01*
X10868595Y-12177835D01*
X10887643Y-12168311D01*
X10925738Y-12168311D01*
X10944786Y-12177835D01*
X10954310Y-12196882D01*
X10954310Y-12215930D01*
X10859071Y-12234977D01*
X11030500Y-12292120D02*
X11049548Y-12301644D01*
X11087643Y-12301644D01*
X11106690Y-12292120D01*
X11116214Y-12273073D01*
X11116214Y-12263549D01*
X11106690Y-12244501D01*
X11087643Y-12234977D01*
X11059071Y-12234977D01*
X11040024Y-12225454D01*
X11030500Y-12206406D01*
X11030500Y-12196882D01*
X11040024Y-12177835D01*
X11059071Y-12168311D01*
X11087643Y-12168311D01*
X11106690Y-12177835D01*
X11182881Y-12377835D02*
X11192405Y-12368311D01*
X11211452Y-12339739D01*
X11220976Y-12320692D01*
X11230500Y-12292120D01*
X11240024Y-12244501D01*
X11240024Y-12206406D01*
X11230500Y-12158787D01*
X11220976Y-12130216D01*
X11211452Y-12111168D01*
X11192405Y-12082596D01*
X11182881Y-12073073D01*
D13*
X6220500Y-12475168D02*
G75*
G03*
X6220500Y-12475168I-20000J0D01*
G01*
D11*
X6516214Y-12365644D02*
X6535262Y-12365644D01*
X6554309Y-12375168D01*
X6563833Y-12384692D01*
X6573357Y-12403739D01*
X6582881Y-12441835D01*
X6582881Y-12489454D01*
X6573357Y-12527549D01*
X6563833Y-12546596D01*
X6554309Y-12556120D01*
X6535262Y-12565644D01*
X6516214Y-12565644D01*
X6497167Y-12556120D01*
X6487643Y-12546596D01*
X6478119Y-12527549D01*
X6468595Y-12489454D01*
X6468595Y-12441835D01*
X6478119Y-12403739D01*
X6487643Y-12384692D01*
X6497167Y-12375168D01*
X6516214Y-12365644D01*
X6668595Y-12546596D02*
X6678119Y-12556120D01*
X6668595Y-12565644D01*
X6659071Y-12556120D01*
X6668595Y-12546596D01*
X6668595Y-12565644D01*
X6849548Y-12432311D02*
X6849548Y-12565644D01*
X6801928Y-12356120D02*
X6754309Y-12498977D01*
X6878119Y-12498977D01*
X6992405Y-12365644D02*
X7011452Y-12365644D01*
X7030500Y-12375168D01*
X7040024Y-12384692D01*
X7049548Y-12403739D01*
X7059071Y-12441835D01*
X7059071Y-12489454D01*
X7049548Y-12527549D01*
X7040024Y-12546596D01*
X7030500Y-12556120D01*
X7011452Y-12565644D01*
X6992405Y-12565644D01*
X6973357Y-12556120D01*
X6963833Y-12546596D01*
X6954309Y-12527549D01*
X6944786Y-12489454D01*
X6944786Y-12441835D01*
X6954309Y-12403739D01*
X6963833Y-12384692D01*
X6973357Y-12375168D01*
X6992405Y-12365644D01*
X7182881Y-12365644D02*
X7201928Y-12365644D01*
X7220976Y-12375168D01*
X7230500Y-12384692D01*
X7240024Y-12403739D01*
X7249548Y-12441835D01*
X7249548Y-12489454D01*
X7240024Y-12527549D01*
X7230500Y-12546596D01*
X7220976Y-12556120D01*
X7201928Y-12565644D01*
X7182881Y-12565644D01*
X7163833Y-12556120D01*
X7154309Y-12546596D01*
X7144786Y-12527549D01*
X7135262Y-12489454D01*
X7135262Y-12441835D01*
X7144786Y-12403739D01*
X7154309Y-12384692D01*
X7163833Y-12375168D01*
X7182881Y-12365644D01*
X7335262Y-12565644D02*
X7335262Y-12432311D01*
X7335262Y-12451358D02*
X7344786Y-12441835D01*
X7363833Y-12432311D01*
X7392405Y-12432311D01*
X7411452Y-12441835D01*
X7420976Y-12460882D01*
X7420976Y-12565644D01*
X7420976Y-12460882D02*
X7430500Y-12441835D01*
X7449548Y-12432311D01*
X7478119Y-12432311D01*
X7497167Y-12441835D01*
X7506690Y-12460882D01*
X7506690Y-12565644D01*
X7601928Y-12565644D02*
X7601928Y-12432311D01*
X7601928Y-12451358D02*
X7611452Y-12441835D01*
X7630500Y-12432311D01*
X7659071Y-12432311D01*
X7678119Y-12441835D01*
X7687643Y-12460882D01*
X7687643Y-12565644D01*
X7687643Y-12460882D02*
X7697167Y-12441835D01*
X7716214Y-12432311D01*
X7744786Y-12432311D01*
X7763833Y-12441835D01*
X7773357Y-12460882D01*
X7773357Y-12565644D01*
X8163833Y-12356120D02*
X7992405Y-12613263D01*
X8420976Y-12365644D02*
X8440024Y-12365644D01*
X8459071Y-12375168D01*
X8468595Y-12384692D01*
X8478119Y-12403739D01*
X8487643Y-12441835D01*
X8487643Y-12489454D01*
X8478119Y-12527549D01*
X8468595Y-12546596D01*
X8459071Y-12556120D01*
X8440024Y-12565644D01*
X8420976Y-12565644D01*
X8401929Y-12556120D01*
X8392405Y-12546596D01*
X8382881Y-12527549D01*
X8373357Y-12489454D01*
X8373357Y-12441835D01*
X8382881Y-12403739D01*
X8392405Y-12384692D01*
X8401929Y-12375168D01*
X8420976Y-12365644D01*
X8573357Y-12546596D02*
X8582881Y-12556120D01*
X8573357Y-12565644D01*
X8563833Y-12556120D01*
X8573357Y-12546596D01*
X8573357Y-12565644D01*
X8706690Y-12365644D02*
X8725738Y-12365644D01*
X8744786Y-12375168D01*
X8754310Y-12384692D01*
X8763833Y-12403739D01*
X8773357Y-12441835D01*
X8773357Y-12489454D01*
X8763833Y-12527549D01*
X8754310Y-12546596D01*
X8744786Y-12556120D01*
X8725738Y-12565644D01*
X8706690Y-12565644D01*
X8687643Y-12556120D01*
X8678119Y-12546596D01*
X8668595Y-12527549D01*
X8659071Y-12489454D01*
X8659071Y-12441835D01*
X8668595Y-12403739D01*
X8678119Y-12384692D01*
X8687643Y-12375168D01*
X8706690Y-12365644D01*
X8963833Y-12565644D02*
X8849548Y-12565644D01*
X8906690Y-12565644D02*
X8906690Y-12365644D01*
X8887643Y-12394216D01*
X8868595Y-12413263D01*
X8849548Y-12422787D01*
X9144786Y-12365644D02*
X9049548Y-12365644D01*
X9040024Y-12460882D01*
X9049548Y-12451358D01*
X9068595Y-12441835D01*
X9116214Y-12441835D01*
X9135262Y-12451358D01*
X9144786Y-12460882D01*
X9154310Y-12479930D01*
X9154310Y-12527549D01*
X9144786Y-12546596D01*
X9135262Y-12556120D01*
X9116214Y-12565644D01*
X9068595Y-12565644D01*
X9049548Y-12556120D01*
X9040024Y-12546596D01*
X9220976Y-12365644D02*
X9354310Y-12365644D01*
X9268595Y-12565644D01*
X9420976Y-12365644D02*
X9420976Y-12403739D01*
X9497167Y-12365644D02*
X9497167Y-12403739D01*
X9792405Y-12641835D02*
X9782881Y-12632311D01*
X9763833Y-12603739D01*
X9754310Y-12584692D01*
X9744786Y-12556120D01*
X9735262Y-12508501D01*
X9735262Y-12470406D01*
X9744786Y-12422787D01*
X9754310Y-12394216D01*
X9763833Y-12375168D01*
X9782881Y-12346596D01*
X9792405Y-12337073D01*
X9897167Y-12451358D02*
X9878119Y-12441835D01*
X9868595Y-12432311D01*
X9859071Y-12413263D01*
X9859071Y-12403739D01*
X9868595Y-12384692D01*
X9878119Y-12375168D01*
X9897167Y-12365644D01*
X9935262Y-12365644D01*
X9954310Y-12375168D01*
X9963833Y-12384692D01*
X9973357Y-12403739D01*
X9973357Y-12413263D01*
X9963833Y-12432311D01*
X9954310Y-12441835D01*
X9935262Y-12451358D01*
X9897167Y-12451358D01*
X9878119Y-12460882D01*
X9868595Y-12470406D01*
X9859071Y-12489454D01*
X9859071Y-12527549D01*
X9868595Y-12546596D01*
X9878119Y-12556120D01*
X9897167Y-12565644D01*
X9935262Y-12565644D01*
X9954310Y-12556120D01*
X9963833Y-12546596D01*
X9973357Y-12527549D01*
X9973357Y-12489454D01*
X9963833Y-12470406D01*
X9954310Y-12460882D01*
X9935262Y-12451358D01*
X10040024Y-12365644D02*
X10173357Y-12365644D01*
X10087643Y-12565644D01*
X10401929Y-12565644D02*
X10401929Y-12365644D01*
X10487643Y-12565644D02*
X10487643Y-12460882D01*
X10478119Y-12441835D01*
X10459071Y-12432311D01*
X10430500Y-12432311D01*
X10411452Y-12441835D01*
X10401929Y-12451358D01*
X10611452Y-12565644D02*
X10592405Y-12556120D01*
X10582881Y-12546596D01*
X10573357Y-12527549D01*
X10573357Y-12470406D01*
X10582881Y-12451358D01*
X10592405Y-12441835D01*
X10611452Y-12432311D01*
X10640024Y-12432311D01*
X10659071Y-12441835D01*
X10668595Y-12451358D01*
X10678119Y-12470406D01*
X10678119Y-12527549D01*
X10668595Y-12546596D01*
X10659071Y-12556120D01*
X10640024Y-12565644D01*
X10611452Y-12565644D01*
X10792405Y-12565644D02*
X10773357Y-12556120D01*
X10763833Y-12537073D01*
X10763833Y-12365644D01*
X10944786Y-12556120D02*
X10925738Y-12565644D01*
X10887643Y-12565644D01*
X10868595Y-12556120D01*
X10859071Y-12537073D01*
X10859071Y-12460882D01*
X10868595Y-12441835D01*
X10887643Y-12432311D01*
X10925738Y-12432311D01*
X10944786Y-12441835D01*
X10954310Y-12460882D01*
X10954310Y-12479930D01*
X10859071Y-12498977D01*
X11030500Y-12556120D02*
X11049548Y-12565644D01*
X11087643Y-12565644D01*
X11106690Y-12556120D01*
X11116214Y-12537073D01*
X11116214Y-12527549D01*
X11106690Y-12508501D01*
X11087643Y-12498977D01*
X11059071Y-12498977D01*
X11040024Y-12489454D01*
X11030500Y-12470406D01*
X11030500Y-12460882D01*
X11040024Y-12441835D01*
X11059071Y-12432311D01*
X11087643Y-12432311D01*
X11106690Y-12441835D01*
X11182881Y-12641835D02*
X11192405Y-12632311D01*
X11211452Y-12603739D01*
X11220976Y-12584692D01*
X11230500Y-12556120D01*
X11240024Y-12508501D01*
X11240024Y-12470406D01*
X11230500Y-12422787D01*
X11220976Y-12394216D01*
X11211452Y-12375168D01*
X11192405Y-12346596D01*
X11182881Y-12337073D01*
D14*
X6190500Y-12709168D02*
X6190500Y-12769168D01*
X6160500Y-12739168D02*
X6220500Y-12739168D01*
D11*
X6516214Y-12629644D02*
X6535262Y-12629644D01*
X6554309Y-12639168D01*
X6563833Y-12648692D01*
X6573357Y-12667739D01*
X6582881Y-12705835D01*
X6582881Y-12753454D01*
X6573357Y-12791549D01*
X6563833Y-12810596D01*
X6554309Y-12820120D01*
X6535262Y-12829644D01*
X6516214Y-12829644D01*
X6497167Y-12820120D01*
X6487643Y-12810596D01*
X6478119Y-12791549D01*
X6468595Y-12753454D01*
X6468595Y-12705835D01*
X6478119Y-12667739D01*
X6487643Y-12648692D01*
X6497167Y-12639168D01*
X6516214Y-12629644D01*
X6668595Y-12810596D02*
X6678119Y-12820120D01*
X6668595Y-12829644D01*
X6659071Y-12820120D01*
X6668595Y-12810596D01*
X6668595Y-12829644D01*
X6849548Y-12629644D02*
X6811452Y-12629644D01*
X6792405Y-12639168D01*
X6782881Y-12648692D01*
X6763833Y-12677263D01*
X6754309Y-12715358D01*
X6754309Y-12791549D01*
X6763833Y-12810596D01*
X6773357Y-12820120D01*
X6792405Y-12829644D01*
X6830500Y-12829644D01*
X6849548Y-12820120D01*
X6859071Y-12810596D01*
X6868595Y-12791549D01*
X6868595Y-12743930D01*
X6859071Y-12724882D01*
X6849548Y-12715358D01*
X6830500Y-12705835D01*
X6792405Y-12705835D01*
X6773357Y-12715358D01*
X6763833Y-12724882D01*
X6754309Y-12743930D01*
X6992405Y-12629644D02*
X7011452Y-12629644D01*
X7030500Y-12639168D01*
X7040024Y-12648692D01*
X7049548Y-12667739D01*
X7059071Y-12705835D01*
X7059071Y-12753454D01*
X7049548Y-12791549D01*
X7040024Y-12810596D01*
X7030500Y-12820120D01*
X7011452Y-12829644D01*
X6992405Y-12829644D01*
X6973357Y-12820120D01*
X6963833Y-12810596D01*
X6954309Y-12791549D01*
X6944786Y-12753454D01*
X6944786Y-12705835D01*
X6954309Y-12667739D01*
X6963833Y-12648692D01*
X6973357Y-12639168D01*
X6992405Y-12629644D01*
X7182881Y-12629644D02*
X7201928Y-12629644D01*
X7220976Y-12639168D01*
X7230500Y-12648692D01*
X7240024Y-12667739D01*
X7249548Y-12705835D01*
X7249548Y-12753454D01*
X7240024Y-12791549D01*
X7230500Y-12810596D01*
X7220976Y-12820120D01*
X7201928Y-12829644D01*
X7182881Y-12829644D01*
X7163833Y-12820120D01*
X7154309Y-12810596D01*
X7144786Y-12791549D01*
X7135262Y-12753454D01*
X7135262Y-12705835D01*
X7144786Y-12667739D01*
X7154309Y-12648692D01*
X7163833Y-12639168D01*
X7182881Y-12629644D01*
X7335262Y-12829644D02*
X7335262Y-12696311D01*
X7335262Y-12715358D02*
X7344786Y-12705835D01*
X7363833Y-12696311D01*
X7392405Y-12696311D01*
X7411452Y-12705835D01*
X7420976Y-12724882D01*
X7420976Y-12829644D01*
X7420976Y-12724882D02*
X7430500Y-12705835D01*
X7449548Y-12696311D01*
X7478119Y-12696311D01*
X7497167Y-12705835D01*
X7506690Y-12724882D01*
X7506690Y-12829644D01*
X7601928Y-12829644D02*
X7601928Y-12696311D01*
X7601928Y-12715358D02*
X7611452Y-12705835D01*
X7630500Y-12696311D01*
X7659071Y-12696311D01*
X7678119Y-12705835D01*
X7687643Y-12724882D01*
X7687643Y-12829644D01*
X7687643Y-12724882D02*
X7697167Y-12705835D01*
X7716214Y-12696311D01*
X7744786Y-12696311D01*
X7763833Y-12705835D01*
X7773357Y-12724882D01*
X7773357Y-12829644D01*
X8163833Y-12620120D02*
X7992405Y-12877263D01*
X8420976Y-12629644D02*
X8440024Y-12629644D01*
X8459071Y-12639168D01*
X8468595Y-12648692D01*
X8478119Y-12667739D01*
X8487643Y-12705835D01*
X8487643Y-12753454D01*
X8478119Y-12791549D01*
X8468595Y-12810596D01*
X8459071Y-12820120D01*
X8440024Y-12829644D01*
X8420976Y-12829644D01*
X8401929Y-12820120D01*
X8392405Y-12810596D01*
X8382881Y-12791549D01*
X8373357Y-12753454D01*
X8373357Y-12705835D01*
X8382881Y-12667739D01*
X8392405Y-12648692D01*
X8401929Y-12639168D01*
X8420976Y-12629644D01*
X8573357Y-12810596D02*
X8582881Y-12820120D01*
X8573357Y-12829644D01*
X8563833Y-12820120D01*
X8573357Y-12810596D01*
X8573357Y-12829644D01*
X8706690Y-12629644D02*
X8725738Y-12629644D01*
X8744786Y-12639168D01*
X8754310Y-12648692D01*
X8763833Y-12667739D01*
X8773357Y-12705835D01*
X8773357Y-12753454D01*
X8763833Y-12791549D01*
X8754310Y-12810596D01*
X8744786Y-12820120D01*
X8725738Y-12829644D01*
X8706690Y-12829644D01*
X8687643Y-12820120D01*
X8678119Y-12810596D01*
X8668595Y-12791549D01*
X8659071Y-12753454D01*
X8659071Y-12705835D01*
X8668595Y-12667739D01*
X8678119Y-12648692D01*
X8687643Y-12639168D01*
X8706690Y-12629644D01*
X8849548Y-12648692D02*
X8859071Y-12639168D01*
X8878119Y-12629644D01*
X8925738Y-12629644D01*
X8944786Y-12639168D01*
X8954310Y-12648692D01*
X8963833Y-12667739D01*
X8963833Y-12686787D01*
X8954310Y-12715358D01*
X8840024Y-12829644D01*
X8963833Y-12829644D01*
X9030500Y-12629644D02*
X9154310Y-12629644D01*
X9087643Y-12705835D01*
X9116214Y-12705835D01*
X9135262Y-12715358D01*
X9144786Y-12724882D01*
X9154310Y-12743930D01*
X9154310Y-12791549D01*
X9144786Y-12810596D01*
X9135262Y-12820120D01*
X9116214Y-12829644D01*
X9059071Y-12829644D01*
X9040024Y-12820120D01*
X9030500Y-12810596D01*
X9325738Y-12629644D02*
X9287643Y-12629644D01*
X9268595Y-12639168D01*
X9259071Y-12648692D01*
X9240024Y-12677263D01*
X9230500Y-12715358D01*
X9230500Y-12791549D01*
X9240024Y-12810596D01*
X9249548Y-12820120D01*
X9268595Y-12829644D01*
X9306690Y-12829644D01*
X9325738Y-12820120D01*
X9335262Y-12810596D01*
X9344786Y-12791549D01*
X9344786Y-12743930D01*
X9335262Y-12724882D01*
X9325738Y-12715358D01*
X9306690Y-12705835D01*
X9268595Y-12705835D01*
X9249548Y-12715358D01*
X9240024Y-12724882D01*
X9230500Y-12743930D01*
X9420976Y-12629644D02*
X9420976Y-12667739D01*
X9497167Y-12629644D02*
X9497167Y-12667739D01*
X9792405Y-12905835D02*
X9782881Y-12896311D01*
X9763833Y-12867739D01*
X9754310Y-12848692D01*
X9744786Y-12820120D01*
X9735262Y-12772501D01*
X9735262Y-12734406D01*
X9744786Y-12686787D01*
X9754310Y-12658216D01*
X9763833Y-12639168D01*
X9782881Y-12610596D01*
X9792405Y-12601073D01*
X9906690Y-12629644D02*
X9925738Y-12629644D01*
X9944786Y-12639168D01*
X9954310Y-12648692D01*
X9963833Y-12667739D01*
X9973357Y-12705835D01*
X9973357Y-12753454D01*
X9963833Y-12791549D01*
X9954310Y-12810596D01*
X9944786Y-12820120D01*
X9925738Y-12829644D01*
X9906690Y-12829644D01*
X9887643Y-12820120D01*
X9878119Y-12810596D01*
X9868595Y-12791549D01*
X9859071Y-12753454D01*
X9859071Y-12705835D01*
X9868595Y-12667739D01*
X9878119Y-12648692D01*
X9887643Y-12639168D01*
X9906690Y-12629644D01*
X10211452Y-12829644D02*
X10211452Y-12629644D01*
X10297167Y-12829644D02*
X10297167Y-12724882D01*
X10287643Y-12705835D01*
X10268595Y-12696311D01*
X10240024Y-12696311D01*
X10220976Y-12705835D01*
X10211452Y-12715358D01*
X10420976Y-12829644D02*
X10401929Y-12820120D01*
X10392405Y-12810596D01*
X10382881Y-12791549D01*
X10382881Y-12734406D01*
X10392405Y-12715358D01*
X10401929Y-12705835D01*
X10420976Y-12696311D01*
X10449548Y-12696311D01*
X10468595Y-12705835D01*
X10478119Y-12715358D01*
X10487643Y-12734406D01*
X10487643Y-12791549D01*
X10478119Y-12810596D01*
X10468595Y-12820120D01*
X10449548Y-12829644D01*
X10420976Y-12829644D01*
X10601929Y-12829644D02*
X10582881Y-12820120D01*
X10573357Y-12801073D01*
X10573357Y-12629644D01*
X10754310Y-12820120D02*
X10735262Y-12829644D01*
X10697167Y-12829644D01*
X10678119Y-12820120D01*
X10668595Y-12801073D01*
X10668595Y-12724882D01*
X10678119Y-12705835D01*
X10697167Y-12696311D01*
X10735262Y-12696311D01*
X10754310Y-12705835D01*
X10763833Y-12724882D01*
X10763833Y-12743930D01*
X10668595Y-12762977D01*
X10840024Y-12820120D02*
X10859071Y-12829644D01*
X10897167Y-12829644D01*
X10916214Y-12820120D01*
X10925738Y-12801073D01*
X10925738Y-12791549D01*
X10916214Y-12772501D01*
X10897167Y-12762977D01*
X10868595Y-12762977D01*
X10849548Y-12753454D01*
X10840024Y-12734406D01*
X10840024Y-12724882D01*
X10849548Y-12705835D01*
X10868595Y-12696311D01*
X10897167Y-12696311D01*
X10916214Y-12705835D01*
X11163833Y-12753454D02*
X11316214Y-12753454D01*
X11240024Y-12829644D02*
X11240024Y-12677263D01*
X11649548Y-12696311D02*
X11649548Y-12829644D01*
X11601928Y-12620120D02*
X11554309Y-12762977D01*
X11678119Y-12762977D01*
X11897167Y-12820120D02*
X11916214Y-12829644D01*
X11954309Y-12829644D01*
X11973357Y-12820120D01*
X11982881Y-12801073D01*
X11982881Y-12791549D01*
X11973357Y-12772501D01*
X11954309Y-12762977D01*
X11925738Y-12762977D01*
X11906690Y-12753454D01*
X11897167Y-12734406D01*
X11897167Y-12724882D01*
X11906690Y-12705835D01*
X11925738Y-12696311D01*
X11954309Y-12696311D01*
X11973357Y-12705835D01*
X12097167Y-12829644D02*
X12078119Y-12820120D01*
X12068595Y-12801073D01*
X12068595Y-12629644D01*
X12201928Y-12829644D02*
X12182881Y-12820120D01*
X12173357Y-12810596D01*
X12163833Y-12791549D01*
X12163833Y-12734406D01*
X12173357Y-12715358D01*
X12182881Y-12705835D01*
X12201928Y-12696311D01*
X12230500Y-12696311D01*
X12249548Y-12705835D01*
X12259071Y-12715358D01*
X12268595Y-12734406D01*
X12268595Y-12791549D01*
X12259071Y-12810596D01*
X12249548Y-12820120D01*
X12230500Y-12829644D01*
X12201928Y-12829644D01*
X12325738Y-12696311D02*
X12401928Y-12696311D01*
X12354309Y-12629644D02*
X12354309Y-12801073D01*
X12363833Y-12820120D01*
X12382881Y-12829644D01*
X12401928Y-12829644D01*
X12459071Y-12820120D02*
X12478119Y-12829644D01*
X12516214Y-12829644D01*
X12535262Y-12820120D01*
X12544786Y-12801073D01*
X12544786Y-12791549D01*
X12535262Y-12772501D01*
X12516214Y-12762977D01*
X12487643Y-12762977D01*
X12468595Y-12753454D01*
X12459071Y-12734406D01*
X12459071Y-12724882D01*
X12468595Y-12705835D01*
X12487643Y-12696311D01*
X12516214Y-12696311D01*
X12535262Y-12705835D01*
X12611452Y-12905835D02*
X12620976Y-12896311D01*
X12640024Y-12867739D01*
X12649548Y-12848692D01*
X12659071Y-12820120D01*
X12668595Y-12772501D01*
X12668595Y-12734406D01*
X12659071Y-12686787D01*
X12649548Y-12658216D01*
X12640024Y-12639168D01*
X12620976Y-12610596D01*
X12611452Y-12601073D01*
D15*
X6205856Y-13038524D02*
X6205856Y-12967812D01*
X6135144Y-12967812D01*
X6135144Y-13038524D01*
X6205856Y-13038524D01*
D11*
X6582881Y-13093644D02*
X6468595Y-13093644D01*
X6525738Y-13093644D02*
X6525738Y-12893644D01*
X6506690Y-12922216D01*
X6487643Y-12941263D01*
X6468595Y-12950787D01*
X6668595Y-13074596D02*
X6678119Y-13084120D01*
X6668595Y-13093644D01*
X6659071Y-13084120D01*
X6668595Y-13074596D01*
X6668595Y-13093644D01*
X6801928Y-12893644D02*
X6820976Y-12893644D01*
X6840024Y-12903168D01*
X6849548Y-12912692D01*
X6859071Y-12931739D01*
X6868595Y-12969835D01*
X6868595Y-13017454D01*
X6859071Y-13055549D01*
X6849548Y-13074596D01*
X6840024Y-13084120D01*
X6820976Y-13093644D01*
X6801928Y-13093644D01*
X6782881Y-13084120D01*
X6773357Y-13074596D01*
X6763833Y-13055549D01*
X6754309Y-13017454D01*
X6754309Y-12969835D01*
X6763833Y-12931739D01*
X6773357Y-12912692D01*
X6782881Y-12903168D01*
X6801928Y-12893644D01*
X6992405Y-12893644D02*
X7011452Y-12893644D01*
X7030500Y-12903168D01*
X7040024Y-12912692D01*
X7049548Y-12931739D01*
X7059071Y-12969835D01*
X7059071Y-13017454D01*
X7049548Y-13055549D01*
X7040024Y-13074596D01*
X7030500Y-13084120D01*
X7011452Y-13093644D01*
X6992405Y-13093644D01*
X6973357Y-13084120D01*
X6963833Y-13074596D01*
X6954309Y-13055549D01*
X6944786Y-13017454D01*
X6944786Y-12969835D01*
X6954309Y-12931739D01*
X6963833Y-12912692D01*
X6973357Y-12903168D01*
X6992405Y-12893644D01*
X7182881Y-12893644D02*
X7201928Y-12893644D01*
X7220976Y-12903168D01*
X7230500Y-12912692D01*
X7240024Y-12931739D01*
X7249548Y-12969835D01*
X7249548Y-13017454D01*
X7240024Y-13055549D01*
X7230500Y-13074596D01*
X7220976Y-13084120D01*
X7201928Y-13093644D01*
X7182881Y-13093644D01*
X7163833Y-13084120D01*
X7154309Y-13074596D01*
X7144786Y-13055549D01*
X7135262Y-13017454D01*
X7135262Y-12969835D01*
X7144786Y-12931739D01*
X7154309Y-12912692D01*
X7163833Y-12903168D01*
X7182881Y-12893644D01*
X7335262Y-13093644D02*
X7335262Y-12960311D01*
X7335262Y-12979358D02*
X7344786Y-12969835D01*
X7363833Y-12960311D01*
X7392405Y-12960311D01*
X7411452Y-12969835D01*
X7420976Y-12988882D01*
X7420976Y-13093644D01*
X7420976Y-12988882D02*
X7430500Y-12969835D01*
X7449548Y-12960311D01*
X7478119Y-12960311D01*
X7497167Y-12969835D01*
X7506690Y-12988882D01*
X7506690Y-13093644D01*
X7601928Y-13093644D02*
X7601928Y-12960311D01*
X7601928Y-12979358D02*
X7611452Y-12969835D01*
X7630500Y-12960311D01*
X7659071Y-12960311D01*
X7678119Y-12969835D01*
X7687643Y-12988882D01*
X7687643Y-13093644D01*
X7687643Y-12988882D02*
X7697167Y-12969835D01*
X7716214Y-12960311D01*
X7744786Y-12960311D01*
X7763833Y-12969835D01*
X7773357Y-12988882D01*
X7773357Y-13093644D01*
X8163833Y-12884120D02*
X7992405Y-13141263D01*
X8420976Y-12893644D02*
X8440024Y-12893644D01*
X8459071Y-12903168D01*
X8468595Y-12912692D01*
X8478119Y-12931739D01*
X8487643Y-12969835D01*
X8487643Y-13017454D01*
X8478119Y-13055549D01*
X8468595Y-13074596D01*
X8459071Y-13084120D01*
X8440024Y-13093644D01*
X8420976Y-13093644D01*
X8401929Y-13084120D01*
X8392405Y-13074596D01*
X8382881Y-13055549D01*
X8373357Y-13017454D01*
X8373357Y-12969835D01*
X8382881Y-12931739D01*
X8392405Y-12912692D01*
X8401929Y-12903168D01*
X8420976Y-12893644D01*
X8573357Y-13074596D02*
X8582881Y-13084120D01*
X8573357Y-13093644D01*
X8563833Y-13084120D01*
X8573357Y-13074596D01*
X8573357Y-13093644D01*
X8706690Y-12893644D02*
X8725738Y-12893644D01*
X8744786Y-12903168D01*
X8754310Y-12912692D01*
X8763833Y-12931739D01*
X8773357Y-12969835D01*
X8773357Y-13017454D01*
X8763833Y-13055549D01*
X8754310Y-13074596D01*
X8744786Y-13084120D01*
X8725738Y-13093644D01*
X8706690Y-13093644D01*
X8687643Y-13084120D01*
X8678119Y-13074596D01*
X8668595Y-13055549D01*
X8659071Y-13017454D01*
X8659071Y-12969835D01*
X8668595Y-12931739D01*
X8678119Y-12912692D01*
X8687643Y-12903168D01*
X8706690Y-12893644D01*
X8840024Y-12893644D02*
X8963833Y-12893644D01*
X8897167Y-12969835D01*
X8925738Y-12969835D01*
X8944786Y-12979358D01*
X8954310Y-12988882D01*
X8963833Y-13007930D01*
X8963833Y-13055549D01*
X8954310Y-13074596D01*
X8944786Y-13084120D01*
X8925738Y-13093644D01*
X8868595Y-13093644D01*
X8849548Y-13084120D01*
X8840024Y-13074596D01*
X9059071Y-13093644D02*
X9097167Y-13093644D01*
X9116214Y-13084120D01*
X9125738Y-13074596D01*
X9144786Y-13046025D01*
X9154310Y-13007930D01*
X9154310Y-12931739D01*
X9144786Y-12912692D01*
X9135262Y-12903168D01*
X9116214Y-12893644D01*
X9078119Y-12893644D01*
X9059071Y-12903168D01*
X9049548Y-12912692D01*
X9040024Y-12931739D01*
X9040024Y-12979358D01*
X9049548Y-12998406D01*
X9059071Y-13007930D01*
X9078119Y-13017454D01*
X9116214Y-13017454D01*
X9135262Y-13007930D01*
X9144786Y-12998406D01*
X9154310Y-12979358D01*
X9325738Y-12960311D02*
X9325738Y-13093644D01*
X9278119Y-12884120D02*
X9230500Y-13026977D01*
X9354310Y-13026977D01*
X9420976Y-12893644D02*
X9420976Y-12931739D01*
X9497167Y-12893644D02*
X9497167Y-12931739D01*
X9792405Y-13169835D02*
X9782881Y-13160311D01*
X9763833Y-13131739D01*
X9754310Y-13112692D01*
X9744786Y-13084120D01*
X9735262Y-13036501D01*
X9735262Y-12998406D01*
X9744786Y-12950787D01*
X9754310Y-12922216D01*
X9763833Y-12903168D01*
X9782881Y-12874596D01*
X9792405Y-12865073D01*
X9973357Y-13093644D02*
X9859071Y-13093644D01*
X9916214Y-13093644D02*
X9916214Y-12893644D01*
X9897167Y-12922216D01*
X9878119Y-12941263D01*
X9859071Y-12950787D01*
X10040024Y-12893644D02*
X10173357Y-12893644D01*
X10087643Y-13093644D01*
X10401929Y-13093644D02*
X10401929Y-12893644D01*
X10487643Y-13093644D02*
X10487643Y-12988882D01*
X10478119Y-12969835D01*
X10459071Y-12960311D01*
X10430500Y-12960311D01*
X10411452Y-12969835D01*
X10401929Y-12979358D01*
X10611452Y-13093644D02*
X10592405Y-13084120D01*
X10582881Y-13074596D01*
X10573357Y-13055549D01*
X10573357Y-12998406D01*
X10582881Y-12979358D01*
X10592405Y-12969835D01*
X10611452Y-12960311D01*
X10640024Y-12960311D01*
X10659071Y-12969835D01*
X10668595Y-12979358D01*
X10678119Y-12998406D01*
X10678119Y-13055549D01*
X10668595Y-13074596D01*
X10659071Y-13084120D01*
X10640024Y-13093644D01*
X10611452Y-13093644D01*
X10792405Y-13093644D02*
X10773357Y-13084120D01*
X10763833Y-13065073D01*
X10763833Y-12893644D01*
X10944786Y-13084120D02*
X10925738Y-13093644D01*
X10887643Y-13093644D01*
X10868595Y-13084120D01*
X10859071Y-13065073D01*
X10859071Y-12988882D01*
X10868595Y-12969835D01*
X10887643Y-12960311D01*
X10925738Y-12960311D01*
X10944786Y-12969835D01*
X10954310Y-12988882D01*
X10954310Y-13007930D01*
X10859071Y-13026977D01*
X11030500Y-13084120D02*
X11049548Y-13093644D01*
X11087643Y-13093644D01*
X11106690Y-13084120D01*
X11116214Y-13065073D01*
X11116214Y-13055549D01*
X11106690Y-13036501D01*
X11087643Y-13026977D01*
X11059071Y-13026977D01*
X11040024Y-13017454D01*
X11030500Y-12998406D01*
X11030500Y-12988882D01*
X11040024Y-12969835D01*
X11059071Y-12960311D01*
X11087643Y-12960311D01*
X11106690Y-12969835D01*
X11182881Y-13169835D02*
X11192405Y-13160311D01*
X11211452Y-13131739D01*
X11220976Y-13112692D01*
X11230500Y-13084120D01*
X11240024Y-13036501D01*
X11240024Y-12998406D01*
X11230500Y-12950787D01*
X11220976Y-12922216D01*
X11211452Y-12903168D01*
X11192405Y-12874596D01*
X11182881Y-12865073D01*
D16*
X6160500Y-13327168D02*
X6220500Y-13267168D01*
X6160500Y-13207168D01*
X6100500Y-13267168D01*
X6160500Y-13327168D01*
D11*
X6582881Y-13357644D02*
X6468595Y-13357644D01*
X6525738Y-13357644D02*
X6525738Y-13157644D01*
X6506690Y-13186216D01*
X6487643Y-13205263D01*
X6468595Y-13214787D01*
X6668595Y-13338596D02*
X6678119Y-13348120D01*
X6668595Y-13357644D01*
X6659071Y-13348120D01*
X6668595Y-13338596D01*
X6668595Y-13357644D01*
X6754309Y-13176692D02*
X6763833Y-13167168D01*
X6782881Y-13157644D01*
X6830500Y-13157644D01*
X6849548Y-13167168D01*
X6859071Y-13176692D01*
X6868595Y-13195739D01*
X6868595Y-13214787D01*
X6859071Y-13243358D01*
X6744786Y-13357644D01*
X6868595Y-13357644D01*
X6992405Y-13157644D02*
X7011452Y-13157644D01*
X7030500Y-13167168D01*
X7040024Y-13176692D01*
X7049548Y-13195739D01*
X7059071Y-13233835D01*
X7059071Y-13281454D01*
X7049548Y-13319549D01*
X7040024Y-13338596D01*
X7030500Y-13348120D01*
X7011452Y-13357644D01*
X6992405Y-13357644D01*
X6973357Y-13348120D01*
X6963833Y-13338596D01*
X6954309Y-13319549D01*
X6944786Y-13281454D01*
X6944786Y-13233835D01*
X6954309Y-13195739D01*
X6963833Y-13176692D01*
X6973357Y-13167168D01*
X6992405Y-13157644D01*
X7182881Y-13157644D02*
X7201928Y-13157644D01*
X7220976Y-13167168D01*
X7230500Y-13176692D01*
X7240024Y-13195739D01*
X7249548Y-13233835D01*
X7249548Y-13281454D01*
X7240024Y-13319549D01*
X7230500Y-13338596D01*
X7220976Y-13348120D01*
X7201928Y-13357644D01*
X7182881Y-13357644D01*
X7163833Y-13348120D01*
X7154309Y-13338596D01*
X7144786Y-13319549D01*
X7135262Y-13281454D01*
X7135262Y-13233835D01*
X7144786Y-13195739D01*
X7154309Y-13176692D01*
X7163833Y-13167168D01*
X7182881Y-13157644D01*
X7335262Y-13357644D02*
X7335262Y-13224311D01*
X7335262Y-13243358D02*
X7344786Y-13233835D01*
X7363833Y-13224311D01*
X7392405Y-13224311D01*
X7411452Y-13233835D01*
X7420976Y-13252882D01*
X7420976Y-13357644D01*
X7420976Y-13252882D02*
X7430500Y-13233835D01*
X7449548Y-13224311D01*
X7478119Y-13224311D01*
X7497167Y-13233835D01*
X7506690Y-13252882D01*
X7506690Y-13357644D01*
X7601928Y-13357644D02*
X7601928Y-13224311D01*
X7601928Y-13243358D02*
X7611452Y-13233835D01*
X7630500Y-13224311D01*
X7659071Y-13224311D01*
X7678119Y-13233835D01*
X7687643Y-13252882D01*
X7687643Y-13357644D01*
X7687643Y-13252882D02*
X7697167Y-13233835D01*
X7716214Y-13224311D01*
X7744786Y-13224311D01*
X7763833Y-13233835D01*
X7773357Y-13252882D01*
X7773357Y-13357644D01*
X8163833Y-13148120D02*
X7992405Y-13405263D01*
X8420976Y-13157644D02*
X8440024Y-13157644D01*
X8459071Y-13167168D01*
X8468595Y-13176692D01*
X8478119Y-13195739D01*
X8487643Y-13233835D01*
X8487643Y-13281454D01*
X8478119Y-13319549D01*
X8468595Y-13338596D01*
X8459071Y-13348120D01*
X8440024Y-13357644D01*
X8420976Y-13357644D01*
X8401929Y-13348120D01*
X8392405Y-13338596D01*
X8382881Y-13319549D01*
X8373357Y-13281454D01*
X8373357Y-13233835D01*
X8382881Y-13195739D01*
X8392405Y-13176692D01*
X8401929Y-13167168D01*
X8420976Y-13157644D01*
X8573357Y-13338596D02*
X8582881Y-13348120D01*
X8573357Y-13357644D01*
X8563833Y-13348120D01*
X8573357Y-13338596D01*
X8573357Y-13357644D01*
X8706690Y-13157644D02*
X8725738Y-13157644D01*
X8744786Y-13167168D01*
X8754310Y-13176692D01*
X8763833Y-13195739D01*
X8773357Y-13233835D01*
X8773357Y-13281454D01*
X8763833Y-13319549D01*
X8754310Y-13338596D01*
X8744786Y-13348120D01*
X8725738Y-13357644D01*
X8706690Y-13357644D01*
X8687643Y-13348120D01*
X8678119Y-13338596D01*
X8668595Y-13319549D01*
X8659071Y-13281454D01*
X8659071Y-13233835D01*
X8668595Y-13195739D01*
X8678119Y-13176692D01*
X8687643Y-13167168D01*
X8706690Y-13157644D01*
X8944786Y-13224311D02*
X8944786Y-13357644D01*
X8897167Y-13148120D02*
X8849548Y-13290977D01*
X8973357Y-13290977D01*
X9030500Y-13157644D02*
X9163833Y-13157644D01*
X9078119Y-13357644D01*
X9230500Y-13176692D02*
X9240024Y-13167168D01*
X9259071Y-13157644D01*
X9306690Y-13157644D01*
X9325738Y-13167168D01*
X9335262Y-13176692D01*
X9344786Y-13195739D01*
X9344786Y-13214787D01*
X9335262Y-13243358D01*
X9220976Y-13357644D01*
X9344786Y-13357644D01*
X9420976Y-13157644D02*
X9420976Y-13195739D01*
X9497167Y-13157644D02*
X9497167Y-13195739D01*
X9792405Y-13433835D02*
X9782881Y-13424311D01*
X9763833Y-13395739D01*
X9754310Y-13376692D01*
X9744786Y-13348120D01*
X9735262Y-13300501D01*
X9735262Y-13262406D01*
X9744786Y-13214787D01*
X9754310Y-13186216D01*
X9763833Y-13167168D01*
X9782881Y-13138596D01*
X9792405Y-13129073D01*
X9859071Y-13176692D02*
X9868595Y-13167168D01*
X9887643Y-13157644D01*
X9935262Y-13157644D01*
X9954310Y-13167168D01*
X9963833Y-13176692D01*
X9973357Y-13195739D01*
X9973357Y-13214787D01*
X9963833Y-13243358D01*
X9849548Y-13357644D01*
X9973357Y-13357644D01*
X10097167Y-13157644D02*
X10116214Y-13157644D01*
X10135262Y-13167168D01*
X10144786Y-13176692D01*
X10154310Y-13195739D01*
X10163833Y-13233835D01*
X10163833Y-13281454D01*
X10154310Y-13319549D01*
X10144786Y-13338596D01*
X10135262Y-13348120D01*
X10116214Y-13357644D01*
X10097167Y-13357644D01*
X10078119Y-13348120D01*
X10068595Y-13338596D01*
X10059071Y-13319549D01*
X10049548Y-13281454D01*
X10049548Y-13233835D01*
X10059071Y-13195739D01*
X10068595Y-13176692D01*
X10078119Y-13167168D01*
X10097167Y-13157644D01*
X10401929Y-13357644D02*
X10401929Y-13157644D01*
X10487643Y-13357644D02*
X10487643Y-13252882D01*
X10478119Y-13233835D01*
X10459071Y-13224311D01*
X10430500Y-13224311D01*
X10411452Y-13233835D01*
X10401929Y-13243358D01*
X10611452Y-13357644D02*
X10592405Y-13348120D01*
X10582881Y-13338596D01*
X10573357Y-13319549D01*
X10573357Y-13262406D01*
X10582881Y-13243358D01*
X10592405Y-13233835D01*
X10611452Y-13224311D01*
X10640024Y-13224311D01*
X10659071Y-13233835D01*
X10668595Y-13243358D01*
X10678119Y-13262406D01*
X10678119Y-13319549D01*
X10668595Y-13338596D01*
X10659071Y-13348120D01*
X10640024Y-13357644D01*
X10611452Y-13357644D01*
X10792405Y-13357644D02*
X10773357Y-13348120D01*
X10763833Y-13329073D01*
X10763833Y-13157644D01*
X10944786Y-13348120D02*
X10925738Y-13357644D01*
X10887643Y-13357644D01*
X10868595Y-13348120D01*
X10859071Y-13329073D01*
X10859071Y-13252882D01*
X10868595Y-13233835D01*
X10887643Y-13224311D01*
X10925738Y-13224311D01*
X10944786Y-13233835D01*
X10954310Y-13252882D01*
X10954310Y-13271930D01*
X10859071Y-13290977D01*
X11030500Y-13348120D02*
X11049548Y-13357644D01*
X11087643Y-13357644D01*
X11106690Y-13348120D01*
X11116214Y-13329073D01*
X11116214Y-13319549D01*
X11106690Y-13300501D01*
X11087643Y-13290977D01*
X11059071Y-13290977D01*
X11040024Y-13281454D01*
X11030500Y-13262406D01*
X11030500Y-13252882D01*
X11040024Y-13233835D01*
X11059071Y-13224311D01*
X11087643Y-13224311D01*
X11106690Y-13233835D01*
X11182881Y-13433835D02*
X11192405Y-13424311D01*
X11211452Y-13395739D01*
X11220976Y-13376692D01*
X11230500Y-13348120D01*
X11240024Y-13300501D01*
X11240024Y-13262406D01*
X11230500Y-13214787D01*
X11220976Y-13186216D01*
X11211452Y-13167168D01*
X11192405Y-13138596D01*
X11182881Y-13129073D01*
M02*
